<mxfile host="Electron" modified="2023-06-28T10:26:09.100Z" agent="Mozilla/5.0 (Macintosh; Intel Mac OS X 10_15_7) AppleWebKit/537.36 (KHTML, like Gecko) draw.io/21.5.0 Chrome/112.0.5615.204 Electron/24.5.1 Safari/537.36" etag="d35wfWVN6xapS-ye4hDH" version="21.5.0" type="device">
  <diagram id="A3CMBgbaPZcZ_ywNGk6a" name="Page-1">
    <mxGraphModel dx="1837" dy="1169" grid="1" gridSize="10" guides="1" tooltips="1" connect="1" arrows="1" fold="1" page="1" pageScale="1" pageWidth="850" pageHeight="1100" math="0" shadow="0">
      <root>
        <mxCell id="0" />
        <mxCell id="1" parent="0" />
        <mxCell id="seNCL75p8Slw6cayTFeB-208" value="Table" style="shape=table;startSize=0;container=1;collapsible=1;childLayout=tableLayout;fixedRows=1;rowLines=0;fontStyle=1;align=center;resizeLast=1;fontSize=13;" parent="1" vertex="1">
          <mxGeometry x="1380" y="360" width="230" height="300" as="geometry" />
        </mxCell>
        <mxCell id="seNCL75p8Slw6cayTFeB-209" value="" style="shape=tableRow;horizontal=0;startSize=0;swimlaneHead=0;swimlaneBody=0;fillColor=none;collapsible=0;dropTarget=0;points=[[0,0.5],[1,0.5]];portConstraint=eastwest;top=0;left=0;right=0;bottom=1;fontSize=13;" parent="seNCL75p8Slw6cayTFeB-208" vertex="1">
          <mxGeometry width="230" height="20" as="geometry" />
        </mxCell>
        <mxCell id="seNCL75p8Slw6cayTFeB-210" value="" style="shape=partialRectangle;connectable=0;fillColor=none;top=0;left=0;bottom=0;right=0;fontStyle=1;overflow=hidden;fontSize=13;" parent="seNCL75p8Slw6cayTFeB-209" vertex="1">
          <mxGeometry width="30" height="20" as="geometry">
            <mxRectangle width="30" height="20" as="alternateBounds" />
          </mxGeometry>
        </mxCell>
        <mxCell id="seNCL75p8Slw6cayTFeB-211" value="w1856656_TourSessions" style="shape=partialRectangle;connectable=0;fillColor=none;top=0;left=0;bottom=0;right=0;align=left;spacingLeft=6;fontStyle=5;overflow=hidden;fontSize=13;" parent="seNCL75p8Slw6cayTFeB-209" vertex="1">
          <mxGeometry x="30" width="200" height="20" as="geometry">
            <mxRectangle width="200" height="20" as="alternateBounds" />
          </mxGeometry>
        </mxCell>
        <mxCell id="seNCL75p8Slw6cayTFeB-236" style="shape=tableRow;horizontal=0;startSize=0;swimlaneHead=0;swimlaneBody=0;fillColor=none;collapsible=0;dropTarget=0;points=[[0,0.5],[1,0.5]];portConstraint=eastwest;top=0;left=0;right=0;bottom=0;fontSize=13;" parent="seNCL75p8Slw6cayTFeB-208" vertex="1">
          <mxGeometry y="20" width="230" height="30" as="geometry" />
        </mxCell>
        <mxCell id="seNCL75p8Slw6cayTFeB-237" value="{PK}" style="shape=partialRectangle;connectable=0;fillColor=none;top=0;left=0;bottom=0;right=0;editable=1;overflow=hidden;fontSize=13;fontStyle=1" parent="seNCL75p8Slw6cayTFeB-236" vertex="1">
          <mxGeometry width="30" height="30" as="geometry">
            <mxRectangle width="30" height="30" as="alternateBounds" />
          </mxGeometry>
        </mxCell>
        <mxCell id="seNCL75p8Slw6cayTFeB-238" value="w1856656_SessionID" style="shape=partialRectangle;connectable=0;fillColor=none;top=0;left=0;bottom=0;right=0;align=left;spacingLeft=6;overflow=hidden;fontSize=13;fontStyle=1" parent="seNCL75p8Slw6cayTFeB-236" vertex="1">
          <mxGeometry x="30" width="200" height="30" as="geometry">
            <mxRectangle width="200" height="30" as="alternateBounds" />
          </mxGeometry>
        </mxCell>
        <mxCell id="a4L5xaEb5jmQk4khg5_u-4" style="edgeStyle=orthogonalEdgeStyle;rounded=0;orthogonalLoop=1;jettySize=auto;html=1;exitX=0;exitY=0.5;exitDx=0;exitDy=0;startArrow=none;startFill=0;endArrow=none;endFill=0;" parent="seNCL75p8Slw6cayTFeB-208" source="seNCL75p8Slw6cayTFeB-212" edge="1">
          <mxGeometry relative="1" as="geometry">
            <mxPoint x="30" y="10" as="targetPoint" />
            <Array as="points">
              <mxPoint x="-70" y="65" />
              <mxPoint x="-70" y="-50" />
              <mxPoint x="30" y="-50" />
            </Array>
          </mxGeometry>
        </mxCell>
        <mxCell id="seNCL75p8Slw6cayTFeB-212" value="" style="shape=tableRow;horizontal=0;startSize=0;swimlaneHead=0;swimlaneBody=0;fillColor=none;collapsible=0;dropTarget=0;points=[[0,0.5],[1,0.5]];portConstraint=eastwest;top=0;left=0;right=0;bottom=0;fontSize=13;" parent="seNCL75p8Slw6cayTFeB-208" vertex="1">
          <mxGeometry y="50" width="230" height="30" as="geometry" />
        </mxCell>
        <mxCell id="seNCL75p8Slw6cayTFeB-213" value="" style="shape=partialRectangle;connectable=0;fillColor=none;top=0;left=0;bottom=0;right=0;editable=1;overflow=hidden;fontSize=13;" parent="seNCL75p8Slw6cayTFeB-212" vertex="1">
          <mxGeometry width="30" height="30" as="geometry">
            <mxRectangle width="30" height="30" as="alternateBounds" />
          </mxGeometry>
        </mxCell>
        <mxCell id="seNCL75p8Slw6cayTFeB-214" value="w1856656_StartDate" style="shape=partialRectangle;connectable=0;fillColor=none;top=0;left=0;bottom=0;right=0;align=left;spacingLeft=6;overflow=hidden;fontSize=13;" parent="seNCL75p8Slw6cayTFeB-212" vertex="1">
          <mxGeometry x="30" width="200" height="30" as="geometry">
            <mxRectangle width="200" height="30" as="alternateBounds" />
          </mxGeometry>
        </mxCell>
        <mxCell id="seNCL75p8Slw6cayTFeB-215" value="" style="shape=tableRow;horizontal=0;startSize=0;swimlaneHead=0;swimlaneBody=0;fillColor=none;collapsible=0;dropTarget=0;points=[[0,0.5],[1,0.5]];portConstraint=eastwest;top=0;left=0;right=0;bottom=0;fontSize=13;" parent="seNCL75p8Slw6cayTFeB-208" vertex="1">
          <mxGeometry y="80" width="230" height="20" as="geometry" />
        </mxCell>
        <mxCell id="seNCL75p8Slw6cayTFeB-216" value="" style="shape=partialRectangle;connectable=0;fillColor=none;top=0;left=0;bottom=0;right=0;editable=1;overflow=hidden;fontSize=13;" parent="seNCL75p8Slw6cayTFeB-215" vertex="1">
          <mxGeometry width="30" height="20" as="geometry">
            <mxRectangle width="30" height="20" as="alternateBounds" />
          </mxGeometry>
        </mxCell>
        <mxCell id="seNCL75p8Slw6cayTFeB-217" value="w1856656_StartTime" style="shape=partialRectangle;connectable=0;fillColor=none;top=0;left=0;bottom=0;right=0;align=left;spacingLeft=6;overflow=hidden;fontSize=13;" parent="seNCL75p8Slw6cayTFeB-215" vertex="1">
          <mxGeometry x="30" width="200" height="20" as="geometry">
            <mxRectangle width="200" height="20" as="alternateBounds" />
          </mxGeometry>
        </mxCell>
        <mxCell id="seNCL75p8Slw6cayTFeB-218" value="" style="shape=tableRow;horizontal=0;startSize=0;swimlaneHead=0;swimlaneBody=0;fillColor=none;collapsible=0;dropTarget=0;points=[[0,0.5],[1,0.5]];portConstraint=eastwest;top=0;left=0;right=0;bottom=0;fontSize=13;" parent="seNCL75p8Slw6cayTFeB-208" vertex="1">
          <mxGeometry y="100" width="230" height="30" as="geometry" />
        </mxCell>
        <mxCell id="seNCL75p8Slw6cayTFeB-219" value="" style="shape=partialRectangle;connectable=0;fillColor=none;top=0;left=0;bottom=0;right=0;editable=1;overflow=hidden;fontSize=13;" parent="seNCL75p8Slw6cayTFeB-218" vertex="1">
          <mxGeometry width="30" height="30" as="geometry">
            <mxRectangle width="30" height="30" as="alternateBounds" />
          </mxGeometry>
        </mxCell>
        <mxCell id="seNCL75p8Slw6cayTFeB-220" value="w1856656_StartAddress" style="shape=partialRectangle;connectable=0;fillColor=none;top=0;left=0;bottom=0;right=0;align=left;spacingLeft=6;overflow=hidden;fontSize=13;" parent="seNCL75p8Slw6cayTFeB-218" vertex="1">
          <mxGeometry x="30" width="200" height="30" as="geometry">
            <mxRectangle width="200" height="30" as="alternateBounds" />
          </mxGeometry>
        </mxCell>
        <mxCell id="seNCL75p8Slw6cayTFeB-221" style="shape=tableRow;horizontal=0;startSize=0;swimlaneHead=0;swimlaneBody=0;fillColor=none;collapsible=0;dropTarget=0;points=[[0,0.5],[1,0.5]];portConstraint=eastwest;top=0;left=0;right=0;bottom=0;fontSize=13;" parent="seNCL75p8Slw6cayTFeB-208" vertex="1">
          <mxGeometry y="130" width="230" height="20" as="geometry" />
        </mxCell>
        <mxCell id="seNCL75p8Slw6cayTFeB-222" style="shape=partialRectangle;connectable=0;fillColor=none;top=0;left=0;bottom=0;right=0;editable=1;overflow=hidden;fontSize=13;" parent="seNCL75p8Slw6cayTFeB-221" vertex="1">
          <mxGeometry width="30" height="20" as="geometry">
            <mxRectangle width="30" height="20" as="alternateBounds" />
          </mxGeometry>
        </mxCell>
        <mxCell id="seNCL75p8Slw6cayTFeB-223" value="w1856656_EndDate" style="shape=partialRectangle;connectable=0;fillColor=none;top=0;left=0;bottom=0;right=0;align=left;spacingLeft=6;overflow=hidden;fontSize=13;" parent="seNCL75p8Slw6cayTFeB-221" vertex="1">
          <mxGeometry x="30" width="200" height="20" as="geometry">
            <mxRectangle width="200" height="20" as="alternateBounds" />
          </mxGeometry>
        </mxCell>
        <mxCell id="7QcmikivW9vGpo6I47kG-4" style="shape=tableRow;horizontal=0;startSize=0;swimlaneHead=0;swimlaneBody=0;fillColor=none;collapsible=0;dropTarget=0;points=[[0,0.5],[1,0.5]];portConstraint=eastwest;top=0;left=0;right=0;bottom=0;fontSize=13;" parent="seNCL75p8Slw6cayTFeB-208" vertex="1">
          <mxGeometry y="150" width="230" height="30" as="geometry" />
        </mxCell>
        <mxCell id="7QcmikivW9vGpo6I47kG-5" style="shape=partialRectangle;connectable=0;fillColor=none;top=0;left=0;bottom=0;right=0;editable=1;overflow=hidden;fontSize=13;" parent="7QcmikivW9vGpo6I47kG-4" vertex="1">
          <mxGeometry width="30" height="30" as="geometry">
            <mxRectangle width="30" height="30" as="alternateBounds" />
          </mxGeometry>
        </mxCell>
        <mxCell id="7QcmikivW9vGpo6I47kG-6" value="w1856656_MaxCustomer" style="shape=partialRectangle;connectable=0;fillColor=none;top=0;left=0;bottom=0;right=0;align=left;spacingLeft=6;overflow=hidden;fontSize=13;" parent="7QcmikivW9vGpo6I47kG-4" vertex="1">
          <mxGeometry x="30" width="200" height="30" as="geometry">
            <mxRectangle width="200" height="30" as="alternateBounds" />
          </mxGeometry>
        </mxCell>
        <mxCell id="seNCL75p8Slw6cayTFeB-224" style="shape=tableRow;horizontal=0;startSize=0;swimlaneHead=0;swimlaneBody=0;fillColor=none;collapsible=0;dropTarget=0;points=[[0,0.5],[1,0.5]];portConstraint=eastwest;top=0;left=0;right=0;bottom=0;fontSize=13;" parent="seNCL75p8Slw6cayTFeB-208" vertex="1">
          <mxGeometry y="180" width="230" height="30" as="geometry" />
        </mxCell>
        <mxCell id="seNCL75p8Slw6cayTFeB-225" style="shape=partialRectangle;connectable=0;fillColor=none;top=0;left=0;bottom=0;right=0;editable=1;overflow=hidden;fontSize=13;" parent="seNCL75p8Slw6cayTFeB-224" vertex="1">
          <mxGeometry width="30" height="30" as="geometry">
            <mxRectangle width="30" height="30" as="alternateBounds" />
          </mxGeometry>
        </mxCell>
        <mxCell id="seNCL75p8Slw6cayTFeB-226" value="w1856656_EndTime" style="shape=partialRectangle;connectable=0;fillColor=none;top=0;left=0;bottom=0;right=0;align=left;spacingLeft=6;overflow=hidden;fontSize=13;" parent="seNCL75p8Slw6cayTFeB-224" vertex="1">
          <mxGeometry x="30" width="200" height="30" as="geometry">
            <mxRectangle width="200" height="30" as="alternateBounds" />
          </mxGeometry>
        </mxCell>
        <mxCell id="seNCL75p8Slw6cayTFeB-227" style="shape=tableRow;horizontal=0;startSize=0;swimlaneHead=0;swimlaneBody=0;fillColor=none;collapsible=0;dropTarget=0;points=[[0,0.5],[1,0.5]];portConstraint=eastwest;top=0;left=0;right=0;bottom=0;fontSize=13;" parent="seNCL75p8Slw6cayTFeB-208" vertex="1">
          <mxGeometry y="210" width="230" height="30" as="geometry" />
        </mxCell>
        <mxCell id="seNCL75p8Slw6cayTFeB-228" style="shape=partialRectangle;connectable=0;fillColor=none;top=0;left=0;bottom=0;right=0;editable=1;overflow=hidden;fontSize=13;" parent="seNCL75p8Slw6cayTFeB-227" vertex="1">
          <mxGeometry width="30" height="30" as="geometry">
            <mxRectangle width="30" height="30" as="alternateBounds" />
          </mxGeometry>
        </mxCell>
        <mxCell id="seNCL75p8Slw6cayTFeB-229" value="w1856656_EndAddress" style="shape=partialRectangle;connectable=0;fillColor=none;top=0;left=0;bottom=0;right=0;align=left;spacingLeft=6;overflow=hidden;fontSize=13;" parent="seNCL75p8Slw6cayTFeB-227" vertex="1">
          <mxGeometry x="30" width="200" height="30" as="geometry">
            <mxRectangle width="200" height="30" as="alternateBounds" />
          </mxGeometry>
        </mxCell>
        <mxCell id="seNCL75p8Slw6cayTFeB-488" style="shape=tableRow;horizontal=0;startSize=0;swimlaneHead=0;swimlaneBody=0;fillColor=none;collapsible=0;dropTarget=0;points=[[0,0.5],[1,0.5]];portConstraint=eastwest;top=0;left=0;right=0;bottom=0;fontSize=13;" parent="seNCL75p8Slw6cayTFeB-208" vertex="1">
          <mxGeometry y="240" width="230" height="30" as="geometry" />
        </mxCell>
        <mxCell id="seNCL75p8Slw6cayTFeB-489" style="shape=partialRectangle;connectable=0;fillColor=none;top=0;left=0;bottom=0;right=0;editable=1;overflow=hidden;fontSize=13;" parent="seNCL75p8Slw6cayTFeB-488" vertex="1">
          <mxGeometry width="30" height="30" as="geometry">
            <mxRectangle width="30" height="30" as="alternateBounds" />
          </mxGeometry>
        </mxCell>
        <mxCell id="seNCL75p8Slw6cayTFeB-490" value="w1856656_AssignedAttractions" style="shape=partialRectangle;connectable=0;fillColor=none;top=0;left=0;bottom=0;right=0;align=left;spacingLeft=6;overflow=hidden;fontSize=13;" parent="seNCL75p8Slw6cayTFeB-488" vertex="1">
          <mxGeometry x="30" width="200" height="30" as="geometry">
            <mxRectangle width="200" height="30" as="alternateBounds" />
          </mxGeometry>
        </mxCell>
        <mxCell id="seNCL75p8Slw6cayTFeB-230" style="shape=tableRow;horizontal=0;startSize=0;swimlaneHead=0;swimlaneBody=0;fillColor=none;collapsible=0;dropTarget=0;points=[[0,0.5],[1,0.5]];portConstraint=eastwest;top=0;left=0;right=0;bottom=0;fontSize=13;" parent="seNCL75p8Slw6cayTFeB-208" vertex="1">
          <mxGeometry y="270" width="230" height="30" as="geometry" />
        </mxCell>
        <mxCell id="seNCL75p8Slw6cayTFeB-231" style="shape=partialRectangle;connectable=0;fillColor=none;top=0;left=0;bottom=0;right=0;editable=1;overflow=hidden;fontSize=13;" parent="seNCL75p8Slw6cayTFeB-230" vertex="1">
          <mxGeometry width="30" height="30" as="geometry">
            <mxRectangle width="30" height="30" as="alternateBounds" />
          </mxGeometry>
        </mxCell>
        <mxCell id="seNCL75p8Slw6cayTFeB-232" value="w1856656_TourLead" style="shape=partialRectangle;connectable=0;fillColor=none;top=0;left=0;bottom=0;right=0;align=left;spacingLeft=6;overflow=hidden;fontSize=13;" parent="seNCL75p8Slw6cayTFeB-230" vertex="1">
          <mxGeometry x="30" width="200" height="30" as="geometry">
            <mxRectangle width="200" height="30" as="alternateBounds" />
          </mxGeometry>
        </mxCell>
        <mxCell id="seNCL75p8Slw6cayTFeB-239" value="w1856656_Attractions" style="shape=table;startSize=30;container=1;collapsible=1;childLayout=tableLayout;fixedRows=1;rowLines=0;fontStyle=1;align=center;resizeLast=1;fontSize=13;" parent="1" vertex="1">
          <mxGeometry x="980" y="840" width="270" height="210" as="geometry" />
        </mxCell>
        <mxCell id="seNCL75p8Slw6cayTFeB-240" value="" style="shape=tableRow;horizontal=0;startSize=0;swimlaneHead=0;swimlaneBody=0;fillColor=none;collapsible=0;dropTarget=0;points=[[0,0.5],[1,0.5]];portConstraint=eastwest;top=0;left=0;right=0;bottom=1;fontSize=13;" parent="seNCL75p8Slw6cayTFeB-239" vertex="1">
          <mxGeometry y="30" width="270" height="60" as="geometry" />
        </mxCell>
        <mxCell id="seNCL75p8Slw6cayTFeB-241" value="{PK}" style="shape=partialRectangle;connectable=0;fillColor=none;top=0;left=0;bottom=0;right=0;fontStyle=1;overflow=hidden;fontSize=13;" parent="seNCL75p8Slw6cayTFeB-240" vertex="1">
          <mxGeometry width="30" height="60" as="geometry">
            <mxRectangle width="30" height="60" as="alternateBounds" />
          </mxGeometry>
        </mxCell>
        <mxCell id="seNCL75p8Slw6cayTFeB-242" value="w1856656_AttractionID" style="shape=partialRectangle;connectable=0;fillColor=none;top=0;left=0;bottom=0;right=0;align=left;spacingLeft=6;fontStyle=5;overflow=hidden;fontSize=13;" parent="seNCL75p8Slw6cayTFeB-240" vertex="1">
          <mxGeometry x="30" width="240" height="60" as="geometry">
            <mxRectangle width="240" height="60" as="alternateBounds" />
          </mxGeometry>
        </mxCell>
        <mxCell id="seNCL75p8Slw6cayTFeB-243" value="" style="shape=tableRow;horizontal=0;startSize=0;swimlaneHead=0;swimlaneBody=0;fillColor=none;collapsible=0;dropTarget=0;points=[[0,0.5],[1,0.5]];portConstraint=eastwest;top=0;left=0;right=0;bottom=0;fontSize=13;" parent="seNCL75p8Slw6cayTFeB-239" vertex="1">
          <mxGeometry y="90" width="270" height="30" as="geometry" />
        </mxCell>
        <mxCell id="seNCL75p8Slw6cayTFeB-244" value="" style="shape=partialRectangle;connectable=0;fillColor=none;top=0;left=0;bottom=0;right=0;editable=1;overflow=hidden;fontSize=13;" parent="seNCL75p8Slw6cayTFeB-243" vertex="1">
          <mxGeometry width="30" height="30" as="geometry">
            <mxRectangle width="30" height="30" as="alternateBounds" />
          </mxGeometry>
        </mxCell>
        <mxCell id="seNCL75p8Slw6cayTFeB-245" value="w18856656_AttractionName" style="shape=partialRectangle;connectable=0;fillColor=none;top=0;left=0;bottom=0;right=0;align=left;spacingLeft=6;overflow=hidden;fontSize=13;" parent="seNCL75p8Slw6cayTFeB-243" vertex="1">
          <mxGeometry x="30" width="240" height="30" as="geometry">
            <mxRectangle width="240" height="30" as="alternateBounds" />
          </mxGeometry>
        </mxCell>
        <mxCell id="FneM1opVlrGnefaTa8es-63" style="shape=tableRow;horizontal=0;startSize=0;swimlaneHead=0;swimlaneBody=0;fillColor=none;collapsible=0;dropTarget=0;points=[[0,0.5],[1,0.5]];portConstraint=eastwest;top=0;left=0;right=0;bottom=0;fontSize=13;" parent="seNCL75p8Slw6cayTFeB-239" vertex="1">
          <mxGeometry y="120" width="270" height="30" as="geometry" />
        </mxCell>
        <mxCell id="FneM1opVlrGnefaTa8es-64" style="shape=partialRectangle;connectable=0;fillColor=none;top=0;left=0;bottom=0;right=0;editable=1;overflow=hidden;fontSize=13;" parent="FneM1opVlrGnefaTa8es-63" vertex="1">
          <mxGeometry width="30" height="30" as="geometry">
            <mxRectangle width="30" height="30" as="alternateBounds" />
          </mxGeometry>
        </mxCell>
        <mxCell id="FneM1opVlrGnefaTa8es-65" value="w18856656_PostCode" style="shape=partialRectangle;connectable=0;fillColor=none;top=0;left=0;bottom=0;right=0;align=left;spacingLeft=6;overflow=hidden;fontSize=13;" parent="FneM1opVlrGnefaTa8es-63" vertex="1">
          <mxGeometry x="30" width="240" height="30" as="geometry">
            <mxRectangle width="240" height="30" as="alternateBounds" />
          </mxGeometry>
        </mxCell>
        <mxCell id="seNCL75p8Slw6cayTFeB-246" value="" style="shape=tableRow;horizontal=0;startSize=0;swimlaneHead=0;swimlaneBody=0;fillColor=none;collapsible=0;dropTarget=0;points=[[0,0.5],[1,0.5]];portConstraint=eastwest;top=0;left=0;right=0;bottom=0;fontSize=13;" parent="seNCL75p8Slw6cayTFeB-239" vertex="1">
          <mxGeometry y="150" width="270" height="30" as="geometry" />
        </mxCell>
        <mxCell id="seNCL75p8Slw6cayTFeB-247" value="" style="shape=partialRectangle;connectable=0;fillColor=none;top=0;left=0;bottom=0;right=0;editable=1;overflow=hidden;fontSize=13;" parent="seNCL75p8Slw6cayTFeB-246" vertex="1">
          <mxGeometry width="30" height="30" as="geometry">
            <mxRectangle width="30" height="30" as="alternateBounds" />
          </mxGeometry>
        </mxCell>
        <mxCell id="seNCL75p8Slw6cayTFeB-248" value="w18856656_Address" style="shape=partialRectangle;connectable=0;fillColor=none;top=0;left=0;bottom=0;right=0;align=left;spacingLeft=6;overflow=hidden;fontSize=13;" parent="seNCL75p8Slw6cayTFeB-246" vertex="1">
          <mxGeometry x="30" width="240" height="30" as="geometry">
            <mxRectangle width="240" height="30" as="alternateBounds" />
          </mxGeometry>
        </mxCell>
        <mxCell id="seNCL75p8Slw6cayTFeB-249" value="" style="shape=tableRow;horizontal=0;startSize=0;swimlaneHead=0;swimlaneBody=0;fillColor=none;collapsible=0;dropTarget=0;points=[[0,0.5],[1,0.5]];portConstraint=eastwest;top=0;left=0;right=0;bottom=0;fontSize=13;" parent="seNCL75p8Slw6cayTFeB-239" vertex="1">
          <mxGeometry y="180" width="270" height="30" as="geometry" />
        </mxCell>
        <mxCell id="seNCL75p8Slw6cayTFeB-250" value="" style="shape=partialRectangle;connectable=0;fillColor=none;top=0;left=0;bottom=0;right=0;editable=1;overflow=hidden;fontSize=13;" parent="seNCL75p8Slw6cayTFeB-249" vertex="1">
          <mxGeometry width="30" height="30" as="geometry">
            <mxRectangle width="30" height="30" as="alternateBounds" />
          </mxGeometry>
        </mxCell>
        <mxCell id="seNCL75p8Slw6cayTFeB-251" value="w18856656_AccessibilityInfo" style="shape=partialRectangle;connectable=0;fillColor=none;top=0;left=0;bottom=0;right=0;align=left;spacingLeft=6;overflow=hidden;fontSize=13;" parent="seNCL75p8Slw6cayTFeB-249" vertex="1">
          <mxGeometry x="30" width="240" height="30" as="geometry">
            <mxRectangle width="240" height="30" as="alternateBounds" />
          </mxGeometry>
        </mxCell>
        <mxCell id="seNCL75p8Slw6cayTFeB-457" style="edgeStyle=orthogonalEdgeStyle;rounded=0;orthogonalLoop=1;jettySize=auto;html=1;entryX=0;entryY=0.5;entryDx=0;entryDy=0;fontSize=13;endArrow=none;endFill=0;" parent="1" source="seNCL75p8Slw6cayTFeB-252" target="seNCL75p8Slw6cayTFeB-410" edge="1">
          <mxGeometry relative="1" as="geometry" />
        </mxCell>
        <mxCell id="seNCL75p8Slw6cayTFeB-252" value="w1856656_Customer" style="shape=table;startSize=30;container=1;collapsible=1;childLayout=tableLayout;fixedRows=1;rowLines=0;fontStyle=1;align=center;resizeLast=1;fontSize=13;" parent="1" vertex="1">
          <mxGeometry x="640" y="357.5" width="260" height="175" as="geometry" />
        </mxCell>
        <mxCell id="seNCL75p8Slw6cayTFeB-253" value="" style="shape=tableRow;horizontal=0;startSize=0;swimlaneHead=0;swimlaneBody=0;fillColor=none;collapsible=0;dropTarget=0;points=[[0,0.5],[1,0.5]];portConstraint=eastwest;top=0;left=0;right=0;bottom=1;fontSize=13;" parent="seNCL75p8Slw6cayTFeB-252" vertex="1">
          <mxGeometry y="30" width="260" height="30" as="geometry" />
        </mxCell>
        <mxCell id="seNCL75p8Slw6cayTFeB-254" value="{PK}" style="shape=partialRectangle;connectable=0;fillColor=none;top=0;left=0;bottom=0;right=0;fontStyle=1;overflow=hidden;fontSize=13;" parent="seNCL75p8Slw6cayTFeB-253" vertex="1">
          <mxGeometry width="30" height="30" as="geometry">
            <mxRectangle width="30" height="30" as="alternateBounds" />
          </mxGeometry>
        </mxCell>
        <mxCell id="seNCL75p8Slw6cayTFeB-255" value="w1856656_CustomerID" style="shape=partialRectangle;connectable=0;fillColor=none;top=0;left=0;bottom=0;right=0;align=left;spacingLeft=6;fontStyle=5;overflow=hidden;fontSize=13;" parent="seNCL75p8Slw6cayTFeB-253" vertex="1">
          <mxGeometry x="30" width="230" height="30" as="geometry">
            <mxRectangle width="230" height="30" as="alternateBounds" />
          </mxGeometry>
        </mxCell>
        <mxCell id="seNCL75p8Slw6cayTFeB-256" value="" style="shape=tableRow;horizontal=0;startSize=0;swimlaneHead=0;swimlaneBody=0;fillColor=none;collapsible=0;dropTarget=0;points=[[0,0.5],[1,0.5]];portConstraint=eastwest;top=0;left=0;right=0;bottom=0;fontSize=13;" parent="seNCL75p8Slw6cayTFeB-252" vertex="1">
          <mxGeometry y="60" width="260" height="25" as="geometry" />
        </mxCell>
        <mxCell id="seNCL75p8Slw6cayTFeB-257" value="" style="shape=partialRectangle;connectable=0;fillColor=none;top=0;left=0;bottom=0;right=0;editable=1;overflow=hidden;fontSize=13;" parent="seNCL75p8Slw6cayTFeB-256" vertex="1">
          <mxGeometry width="30" height="25" as="geometry">
            <mxRectangle width="30" height="25" as="alternateBounds" />
          </mxGeometry>
        </mxCell>
        <mxCell id="seNCL75p8Slw6cayTFeB-258" value="w18856656_FullName" style="shape=partialRectangle;connectable=0;fillColor=none;top=0;left=0;bottom=0;right=0;align=left;spacingLeft=6;overflow=hidden;fontSize=13;" parent="seNCL75p8Slw6cayTFeB-256" vertex="1">
          <mxGeometry x="30" width="230" height="25" as="geometry">
            <mxRectangle width="230" height="25" as="alternateBounds" />
          </mxGeometry>
        </mxCell>
        <mxCell id="seNCL75p8Slw6cayTFeB-259" value="" style="shape=tableRow;horizontal=0;startSize=0;swimlaneHead=0;swimlaneBody=0;fillColor=none;collapsible=0;dropTarget=0;points=[[0,0.5],[1,0.5]];portConstraint=eastwest;top=0;left=0;right=0;bottom=0;fontSize=13;" parent="seNCL75p8Slw6cayTFeB-252" vertex="1">
          <mxGeometry y="85" width="260" height="30" as="geometry" />
        </mxCell>
        <mxCell id="seNCL75p8Slw6cayTFeB-260" value="" style="shape=partialRectangle;connectable=0;fillColor=none;top=0;left=0;bottom=0;right=0;editable=1;overflow=hidden;fontSize=13;" parent="seNCL75p8Slw6cayTFeB-259" vertex="1">
          <mxGeometry width="30" height="30" as="geometry">
            <mxRectangle width="30" height="30" as="alternateBounds" />
          </mxGeometry>
        </mxCell>
        <mxCell id="seNCL75p8Slw6cayTFeB-261" value="w18856656_Address" style="shape=partialRectangle;connectable=0;fillColor=none;top=0;left=0;bottom=0;right=0;align=left;spacingLeft=6;overflow=hidden;fontSize=13;" parent="seNCL75p8Slw6cayTFeB-259" vertex="1">
          <mxGeometry x="30" width="230" height="30" as="geometry">
            <mxRectangle width="230" height="30" as="alternateBounds" />
          </mxGeometry>
        </mxCell>
        <mxCell id="seNCL75p8Slw6cayTFeB-262" value="" style="shape=tableRow;horizontal=0;startSize=0;swimlaneHead=0;swimlaneBody=0;fillColor=none;collapsible=0;dropTarget=0;points=[[0,0.5],[1,0.5]];portConstraint=eastwest;top=0;left=0;right=0;bottom=0;fontSize=13;" parent="seNCL75p8Slw6cayTFeB-252" vertex="1">
          <mxGeometry y="115" width="260" height="30" as="geometry" />
        </mxCell>
        <mxCell id="seNCL75p8Slw6cayTFeB-263" value="" style="shape=partialRectangle;connectable=0;fillColor=none;top=0;left=0;bottom=0;right=0;editable=1;overflow=hidden;fontSize=13;" parent="seNCL75p8Slw6cayTFeB-262" vertex="1">
          <mxGeometry width="30" height="30" as="geometry">
            <mxRectangle width="30" height="30" as="alternateBounds" />
          </mxGeometry>
        </mxCell>
        <mxCell id="seNCL75p8Slw6cayTFeB-264" value="w18856656_Email" style="shape=partialRectangle;connectable=0;fillColor=none;top=0;left=0;bottom=0;right=0;align=left;spacingLeft=6;overflow=hidden;fontSize=13;" parent="seNCL75p8Slw6cayTFeB-262" vertex="1">
          <mxGeometry x="30" width="230" height="30" as="geometry">
            <mxRectangle width="230" height="30" as="alternateBounds" />
          </mxGeometry>
        </mxCell>
        <mxCell id="seNCL75p8Slw6cayTFeB-425" style="shape=tableRow;horizontal=0;startSize=0;swimlaneHead=0;swimlaneBody=0;fillColor=none;collapsible=0;dropTarget=0;points=[[0,0.5],[1,0.5]];portConstraint=eastwest;top=0;left=0;right=0;bottom=0;fontSize=13;" parent="seNCL75p8Slw6cayTFeB-252" vertex="1">
          <mxGeometry y="145" width="260" height="30" as="geometry" />
        </mxCell>
        <mxCell id="seNCL75p8Slw6cayTFeB-426" style="shape=partialRectangle;connectable=0;fillColor=none;top=0;left=0;bottom=0;right=0;editable=1;overflow=hidden;fontSize=13;" parent="seNCL75p8Slw6cayTFeB-425" vertex="1">
          <mxGeometry width="30" height="30" as="geometry">
            <mxRectangle width="30" height="30" as="alternateBounds" />
          </mxGeometry>
        </mxCell>
        <mxCell id="seNCL75p8Slw6cayTFeB-427" value="w18856656_PhoneNumber" style="shape=partialRectangle;connectable=0;fillColor=none;top=0;left=0;bottom=0;right=0;align=left;spacingLeft=6;overflow=hidden;fontSize=13;" parent="seNCL75p8Slw6cayTFeB-425" vertex="1">
          <mxGeometry x="30" width="230" height="30" as="geometry">
            <mxRectangle width="230" height="30" as="alternateBounds" />
          </mxGeometry>
        </mxCell>
        <mxCell id="seNCL75p8Slw6cayTFeB-293" value="" style="triangle;whiteSpace=wrap;html=1;fontSize=13;fillColor=#000000;" parent="1" vertex="1">
          <mxGeometry x="880" y="195" width="30" height="40" as="geometry" />
        </mxCell>
        <mxCell id="seNCL75p8Slw6cayTFeB-294" value="Reserves" style="text;html=1;strokeColor=none;fillColor=none;align=center;verticalAlign=middle;whiteSpace=wrap;rounded=0;fontSize=13;" parent="1" vertex="1">
          <mxGeometry x="820" y="200" width="60" height="30" as="geometry" />
        </mxCell>
        <mxCell id="seNCL75p8Slw6cayTFeB-305" value="w18856656_ VisitingTours" style="shape=table;startSize=30;container=1;collapsible=1;childLayout=tableLayout;fixedRows=1;rowLines=0;fontStyle=1;align=center;resizeLast=1;fontSize=13;" parent="1" vertex="1">
          <mxGeometry x="780" y="1600" width="210" height="100" as="geometry" />
        </mxCell>
        <mxCell id="seNCL75p8Slw6cayTFeB-306" value="" style="shape=tableRow;horizontal=0;startSize=0;swimlaneHead=0;swimlaneBody=0;fillColor=none;collapsible=0;dropTarget=0;points=[[0,0.5],[1,0.5]];portConstraint=eastwest;top=0;left=0;right=0;bottom=1;fontSize=13;" parent="seNCL75p8Slw6cayTFeB-305" vertex="1">
          <mxGeometry y="30" width="210" height="30" as="geometry" />
        </mxCell>
        <mxCell id="seNCL75p8Slw6cayTFeB-307" value="{PK}" style="shape=partialRectangle;connectable=0;fillColor=none;top=0;left=0;bottom=0;right=0;fontStyle=1;overflow=hidden;fontSize=13;" parent="seNCL75p8Slw6cayTFeB-306" vertex="1">
          <mxGeometry width="30" height="30" as="geometry">
            <mxRectangle width="30" height="30" as="alternateBounds" />
          </mxGeometry>
        </mxCell>
        <mxCell id="seNCL75p8Slw6cayTFeB-308" value="w18856656_TourID" style="shape=partialRectangle;connectable=0;fillColor=none;top=0;left=0;bottom=0;right=0;align=left;spacingLeft=6;fontStyle=5;overflow=hidden;fontSize=13;" parent="seNCL75p8Slw6cayTFeB-306" vertex="1">
          <mxGeometry x="30" width="180" height="30" as="geometry">
            <mxRectangle width="180" height="30" as="alternateBounds" />
          </mxGeometry>
        </mxCell>
        <mxCell id="seNCL75p8Slw6cayTFeB-309" value="" style="shape=tableRow;horizontal=0;startSize=0;swimlaneHead=0;swimlaneBody=0;fillColor=none;collapsible=0;dropTarget=0;points=[[0,0.5],[1,0.5]];portConstraint=eastwest;top=0;left=0;right=0;bottom=0;fontSize=13;" parent="seNCL75p8Slw6cayTFeB-305" vertex="1">
          <mxGeometry y="60" width="210" height="40" as="geometry" />
        </mxCell>
        <mxCell id="seNCL75p8Slw6cayTFeB-310" value="" style="shape=partialRectangle;connectable=0;fillColor=none;top=0;left=0;bottom=0;right=0;editable=1;overflow=hidden;fontSize=13;" parent="seNCL75p8Slw6cayTFeB-309" vertex="1">
          <mxGeometry width="30" height="40" as="geometry">
            <mxRectangle width="30" height="40" as="alternateBounds" />
          </mxGeometry>
        </mxCell>
        <mxCell id="seNCL75p8Slw6cayTFeB-311" value="w18856656_Description" style="shape=partialRectangle;connectable=0;fillColor=none;top=0;left=0;bottom=0;right=0;align=left;spacingLeft=6;overflow=hidden;fontSize=13;" parent="seNCL75p8Slw6cayTFeB-309" vertex="1">
          <mxGeometry x="30" width="180" height="40" as="geometry">
            <mxRectangle width="180" height="40" as="alternateBounds" />
          </mxGeometry>
        </mxCell>
        <mxCell id="seNCL75p8Slw6cayTFeB-318" value="w18856656_WalkingTour" style="shape=table;startSize=30;container=1;collapsible=1;childLayout=tableLayout;fixedRows=1;rowLines=0;fontStyle=1;align=center;resizeLast=1;fontSize=13;" parent="1" vertex="1">
          <mxGeometry x="1960" y="195" width="270" height="85" as="geometry" />
        </mxCell>
        <mxCell id="seNCL75p8Slw6cayTFeB-319" value="" style="shape=tableRow;horizontal=0;startSize=0;swimlaneHead=0;swimlaneBody=0;fillColor=none;collapsible=0;dropTarget=0;points=[[0,0.5],[1,0.5]];portConstraint=eastwest;top=0;left=0;right=0;bottom=1;fontSize=13;" parent="seNCL75p8Slw6cayTFeB-318" vertex="1">
          <mxGeometry y="30" width="270" height="55" as="geometry" />
        </mxCell>
        <mxCell id="seNCL75p8Slw6cayTFeB-321" value="w18856656_Distance&#xa;w18856656_Attraction" style="shape=partialRectangle;connectable=0;fillColor=none;top=0;left=0;bottom=0;right=0;align=left;spacingLeft=6;fontStyle=4;overflow=hidden;fontSize=13;" parent="seNCL75p8Slw6cayTFeB-319" vertex="1">
          <mxGeometry width="270" height="55" as="geometry">
            <mxRectangle width="270" height="55" as="alternateBounds" />
          </mxGeometry>
        </mxCell>
        <mxCell id="seNCL75p8Slw6cayTFeB-331" value="w18856656_CyclingTour" style="shape=table;startSize=30;container=1;collapsible=1;childLayout=tableLayout;fixedRows=1;rowLines=0;fontStyle=1;align=center;resizeLast=1;fontSize=13;" parent="1" vertex="1">
          <mxGeometry x="1960" y="430" width="230" height="120" as="geometry" />
        </mxCell>
        <mxCell id="seNCL75p8Slw6cayTFeB-335" value="" style="shape=tableRow;horizontal=0;startSize=0;swimlaneHead=0;swimlaneBody=0;fillColor=none;collapsible=0;dropTarget=0;points=[[0,0.5],[1,0.5]];portConstraint=eastwest;top=0;left=0;right=0;bottom=0;fontSize=13;" parent="seNCL75p8Slw6cayTFeB-331" vertex="1">
          <mxGeometry y="30" width="230" height="30" as="geometry" />
        </mxCell>
        <mxCell id="seNCL75p8Slw6cayTFeB-337" value="w18856656_BicycleStyle" style="shape=partialRectangle;connectable=0;fillColor=none;top=0;left=0;bottom=0;right=0;align=left;spacingLeft=6;overflow=hidden;fontSize=13;" parent="seNCL75p8Slw6cayTFeB-335" vertex="1">
          <mxGeometry width="230" height="30" as="geometry">
            <mxRectangle width="230" height="30" as="alternateBounds" />
          </mxGeometry>
        </mxCell>
        <mxCell id="seNCL75p8Slw6cayTFeB-338" value="" style="shape=tableRow;horizontal=0;startSize=0;swimlaneHead=0;swimlaneBody=0;fillColor=none;collapsible=0;dropTarget=0;points=[[0,0.5],[1,0.5]];portConstraint=eastwest;top=0;left=0;right=0;bottom=0;fontSize=13;" parent="seNCL75p8Slw6cayTFeB-331" vertex="1">
          <mxGeometry y="60" width="230" height="30" as="geometry" />
        </mxCell>
        <mxCell id="seNCL75p8Slw6cayTFeB-340" value="w18856656_HelmetSize" style="shape=partialRectangle;connectable=0;fillColor=none;top=0;left=0;bottom=0;right=0;align=left;spacingLeft=6;overflow=hidden;fontSize=13;" parent="seNCL75p8Slw6cayTFeB-338" vertex="1">
          <mxGeometry width="230" height="30" as="geometry">
            <mxRectangle width="230" height="30" as="alternateBounds" />
          </mxGeometry>
        </mxCell>
        <mxCell id="seNCL75p8Slw6cayTFeB-341" value="" style="shape=tableRow;horizontal=0;startSize=0;swimlaneHead=0;swimlaneBody=0;fillColor=none;collapsible=0;dropTarget=0;points=[[0,0.5],[1,0.5]];portConstraint=eastwest;top=0;left=0;right=0;bottom=0;fontSize=13;" parent="seNCL75p8Slw6cayTFeB-331" vertex="1">
          <mxGeometry y="90" width="230" height="30" as="geometry" />
        </mxCell>
        <mxCell id="seNCL75p8Slw6cayTFeB-343" value="w18856656_BicycleSize" style="shape=partialRectangle;connectable=0;fillColor=none;top=0;left=0;bottom=0;right=0;align=left;spacingLeft=6;overflow=hidden;fontSize=13;" parent="seNCL75p8Slw6cayTFeB-341" vertex="1">
          <mxGeometry width="230" height="30" as="geometry">
            <mxRectangle width="230" height="30" as="alternateBounds" />
          </mxGeometry>
        </mxCell>
        <mxCell id="seNCL75p8Slw6cayTFeB-344" value="w18856656_FoodTour" style="shape=table;startSize=30;container=1;collapsible=1;childLayout=tableLayout;fixedRows=1;rowLines=0;fontStyle=1;align=center;resizeLast=1;fontSize=13;" parent="1" vertex="1">
          <mxGeometry x="1960" y="720" width="230" height="110" as="geometry" />
        </mxCell>
        <mxCell id="seNCL75p8Slw6cayTFeB-345" value="" style="shape=tableRow;horizontal=0;startSize=0;swimlaneHead=0;swimlaneBody=0;fillColor=none;collapsible=0;dropTarget=0;points=[[0,0.5],[1,0.5]];portConstraint=eastwest;top=0;left=0;right=0;bottom=1;fontSize=13;" parent="seNCL75p8Slw6cayTFeB-344" vertex="1">
          <mxGeometry y="30" width="230" height="30" as="geometry" />
        </mxCell>
        <mxCell id="seNCL75p8Slw6cayTFeB-347" value="w18856656_DietarySpec" style="shape=partialRectangle;connectable=0;fillColor=none;top=0;left=0;bottom=0;right=0;align=left;spacingLeft=6;fontStyle=5;overflow=hidden;fontSize=13;" parent="seNCL75p8Slw6cayTFeB-345" vertex="1">
          <mxGeometry width="230" height="30" as="geometry">
            <mxRectangle width="230" height="30" as="alternateBounds" />
          </mxGeometry>
        </mxCell>
        <mxCell id="seNCL75p8Slw6cayTFeB-348" value="" style="shape=tableRow;horizontal=0;startSize=0;swimlaneHead=0;swimlaneBody=0;fillColor=none;collapsible=0;dropTarget=0;points=[[0,0.5],[1,0.5]];portConstraint=eastwest;top=0;left=0;right=0;bottom=0;fontSize=13;" parent="seNCL75p8Slw6cayTFeB-344" vertex="1">
          <mxGeometry y="60" width="230" height="30" as="geometry" />
        </mxCell>
        <mxCell id="seNCL75p8Slw6cayTFeB-350" value="w18856656_FoodSelection" style="shape=partialRectangle;connectable=0;fillColor=none;top=0;left=0;bottom=0;right=0;align=left;spacingLeft=6;overflow=hidden;fontSize=13;" parent="seNCL75p8Slw6cayTFeB-348" vertex="1">
          <mxGeometry width="230" height="30" as="geometry">
            <mxRectangle width="230" height="30" as="alternateBounds" />
          </mxGeometry>
        </mxCell>
        <mxCell id="seNCL75p8Slw6cayTFeB-351" value="" style="shape=tableRow;horizontal=0;startSize=0;swimlaneHead=0;swimlaneBody=0;fillColor=none;collapsible=0;dropTarget=0;points=[[0,0.5],[1,0.5]];portConstraint=eastwest;top=0;left=0;right=0;bottom=0;fontSize=13;" parent="seNCL75p8Slw6cayTFeB-344" vertex="1">
          <mxGeometry y="90" width="230" height="20" as="geometry" />
        </mxCell>
        <mxCell id="seNCL75p8Slw6cayTFeB-353" value="w18856656_DrinksSelection" style="shape=partialRectangle;connectable=0;fillColor=none;top=0;left=0;bottom=0;right=0;align=left;spacingLeft=6;overflow=hidden;fontSize=13;" parent="seNCL75p8Slw6cayTFeB-351" vertex="1">
          <mxGeometry width="230" height="20" as="geometry">
            <mxRectangle width="230" height="20" as="alternateBounds" />
          </mxGeometry>
        </mxCell>
        <mxCell id="seNCL75p8Slw6cayTFeB-364" value="w18856656_Staff" style="shape=table;startSize=30;container=1;collapsible=1;childLayout=tableLayout;fixedRows=1;rowLines=0;fontStyle=1;align=center;resizeLast=1;fontSize=13;" parent="1" vertex="1">
          <mxGeometry x="1540" y="1105" width="290" height="130" as="geometry" />
        </mxCell>
        <mxCell id="seNCL75p8Slw6cayTFeB-365" value="" style="shape=tableRow;horizontal=0;startSize=0;swimlaneHead=0;swimlaneBody=0;fillColor=none;collapsible=0;dropTarget=0;points=[[0,0.5],[1,0.5]];portConstraint=eastwest;top=0;left=0;right=0;bottom=1;fontSize=13;" parent="seNCL75p8Slw6cayTFeB-364" vertex="1">
          <mxGeometry y="30" width="290" height="30" as="geometry" />
        </mxCell>
        <mxCell id="seNCL75p8Slw6cayTFeB-366" value="{PK}" style="shape=partialRectangle;connectable=0;fillColor=none;top=0;left=0;bottom=0;right=0;fontStyle=1;overflow=hidden;fontSize=13;" parent="seNCL75p8Slw6cayTFeB-365" vertex="1">
          <mxGeometry width="30" height="30" as="geometry">
            <mxRectangle width="30" height="30" as="alternateBounds" />
          </mxGeometry>
        </mxCell>
        <mxCell id="seNCL75p8Slw6cayTFeB-367" value="w18856656_StaffID" style="shape=partialRectangle;connectable=0;fillColor=none;top=0;left=0;bottom=0;right=0;align=left;spacingLeft=6;fontStyle=5;overflow=hidden;fontSize=13;" parent="seNCL75p8Slw6cayTFeB-365" vertex="1">
          <mxGeometry x="30" width="260" height="30" as="geometry">
            <mxRectangle width="260" height="30" as="alternateBounds" />
          </mxGeometry>
        </mxCell>
        <mxCell id="seNCL75p8Slw6cayTFeB-368" value="" style="shape=tableRow;horizontal=0;startSize=0;swimlaneHead=0;swimlaneBody=0;fillColor=none;collapsible=0;dropTarget=0;points=[[0,0.5],[1,0.5]];portConstraint=eastwest;top=0;left=0;right=0;bottom=0;fontSize=13;" parent="seNCL75p8Slw6cayTFeB-364" vertex="1">
          <mxGeometry y="60" width="290" height="40" as="geometry" />
        </mxCell>
        <mxCell id="seNCL75p8Slw6cayTFeB-369" value="" style="shape=partialRectangle;connectable=0;fillColor=none;top=0;left=0;bottom=0;right=0;editable=1;overflow=hidden;fontSize=13;" parent="seNCL75p8Slw6cayTFeB-368" vertex="1">
          <mxGeometry width="30" height="40" as="geometry">
            <mxRectangle width="30" height="40" as="alternateBounds" />
          </mxGeometry>
        </mxCell>
        <mxCell id="seNCL75p8Slw6cayTFeB-370" value="w18856656_FullName" style="shape=partialRectangle;connectable=0;fillColor=none;top=0;left=0;bottom=0;right=0;align=left;spacingLeft=6;overflow=hidden;fontSize=13;" parent="seNCL75p8Slw6cayTFeB-368" vertex="1">
          <mxGeometry x="30" width="260" height="40" as="geometry">
            <mxRectangle width="260" height="40" as="alternateBounds" />
          </mxGeometry>
        </mxCell>
        <mxCell id="seNCL75p8Slw6cayTFeB-371" value="" style="shape=tableRow;horizontal=0;startSize=0;swimlaneHead=0;swimlaneBody=0;fillColor=none;collapsible=0;dropTarget=0;points=[[0,0.5],[1,0.5]];portConstraint=eastwest;top=0;left=0;right=0;bottom=0;fontSize=13;" parent="seNCL75p8Slw6cayTFeB-364" vertex="1">
          <mxGeometry y="100" width="290" height="30" as="geometry" />
        </mxCell>
        <mxCell id="seNCL75p8Slw6cayTFeB-372" value="" style="shape=partialRectangle;connectable=0;fillColor=none;top=0;left=0;bottom=0;right=0;editable=1;overflow=hidden;fontSize=13;" parent="seNCL75p8Slw6cayTFeB-371" vertex="1">
          <mxGeometry width="30" height="30" as="geometry">
            <mxRectangle width="30" height="30" as="alternateBounds" />
          </mxGeometry>
        </mxCell>
        <mxCell id="seNCL75p8Slw6cayTFeB-373" value="w18856656_PhoneNumber" style="shape=partialRectangle;connectable=0;fillColor=none;top=0;left=0;bottom=0;right=0;align=left;spacingLeft=6;overflow=hidden;fontSize=13;" parent="seNCL75p8Slw6cayTFeB-371" vertex="1">
          <mxGeometry x="30" width="260" height="30" as="geometry">
            <mxRectangle width="260" height="30" as="alternateBounds" />
          </mxGeometry>
        </mxCell>
        <mxCell id="seNCL75p8Slw6cayTFeB-606" style="edgeStyle=orthogonalEdgeStyle;rounded=0;orthogonalLoop=1;jettySize=auto;html=1;exitX=1;exitY=1;exitDx=0;exitDy=0;fontSize=13;endArrow=none;endFill=0;" parent="1" source="seNCL75p8Slw6cayTFeB-609" edge="1">
          <mxGeometry relative="1" as="geometry">
            <Array as="points">
              <mxPoint x="1470" y="1030" />
              <mxPoint x="1700" y="1030" />
              <mxPoint x="1700" y="610" />
              <mxPoint x="1611" y="610" />
            </Array>
            <mxPoint x="1436" y="1530" as="sourcePoint" />
            <mxPoint x="1611" y="610" as="targetPoint" />
          </mxGeometry>
        </mxCell>
        <mxCell id="seNCL75p8Slw6cayTFeB-380" value="w18856656_TourGuide" style="shape=table;startSize=30;container=1;collapsible=1;childLayout=tableLayout;fixedRows=1;rowLines=0;fontStyle=1;align=center;resizeLast=1;fontSize=13;" parent="1" vertex="1">
          <mxGeometry x="1380" y="1540" width="225" height="120" as="geometry" />
        </mxCell>
        <mxCell id="seNCL75p8Slw6cayTFeB-381" value="" style="shape=tableRow;horizontal=0;startSize=0;swimlaneHead=0;swimlaneBody=0;fillColor=none;collapsible=0;dropTarget=0;points=[[0,0.5],[1,0.5]];portConstraint=eastwest;top=0;left=0;right=0;bottom=1;fontSize=13;" parent="seNCL75p8Slw6cayTFeB-380" vertex="1">
          <mxGeometry y="30" width="225" height="30" as="geometry" />
        </mxCell>
        <mxCell id="seNCL75p8Slw6cayTFeB-383" value="w18856656_ExpertiseArea" style="shape=partialRectangle;connectable=0;fillColor=none;top=0;left=0;bottom=0;right=0;align=left;spacingLeft=6;fontStyle=5;overflow=hidden;fontSize=13;" parent="seNCL75p8Slw6cayTFeB-381" vertex="1">
          <mxGeometry width="225" height="30" as="geometry">
            <mxRectangle width="225" height="30" as="alternateBounds" />
          </mxGeometry>
        </mxCell>
        <mxCell id="seNCL75p8Slw6cayTFeB-384" value="" style="shape=tableRow;horizontal=0;startSize=0;swimlaneHead=0;swimlaneBody=0;fillColor=none;collapsible=0;dropTarget=0;points=[[0,0.5],[1,0.5]];portConstraint=eastwest;top=0;left=0;right=0;bottom=0;fontSize=13;" parent="seNCL75p8Slw6cayTFeB-380" vertex="1">
          <mxGeometry y="60" width="225" height="30" as="geometry" />
        </mxCell>
        <mxCell id="seNCL75p8Slw6cayTFeB-386" value="w18856656_AcademicKnowledge" style="shape=partialRectangle;connectable=0;fillColor=none;top=0;left=0;bottom=0;right=0;align=left;spacingLeft=6;overflow=hidden;fontSize=13;" parent="seNCL75p8Slw6cayTFeB-384" vertex="1">
          <mxGeometry width="225" height="30" as="geometry">
            <mxRectangle width="225" height="30" as="alternateBounds" />
          </mxGeometry>
        </mxCell>
        <mxCell id="seNCL75p8Slw6cayTFeB-387" value="" style="shape=tableRow;horizontal=0;startSize=0;swimlaneHead=0;swimlaneBody=0;fillColor=none;collapsible=0;dropTarget=0;points=[[0,0.5],[1,0.5]];portConstraint=eastwest;top=0;left=0;right=0;bottom=0;fontSize=13;" parent="seNCL75p8Slw6cayTFeB-380" vertex="1">
          <mxGeometry y="90" width="225" height="30" as="geometry" />
        </mxCell>
        <mxCell id="seNCL75p8Slw6cayTFeB-389" value="w18856656_Certifications" style="shape=partialRectangle;connectable=0;fillColor=none;top=0;left=0;bottom=0;right=0;align=left;spacingLeft=6;overflow=hidden;fontSize=13;" parent="seNCL75p8Slw6cayTFeB-387" vertex="1">
          <mxGeometry width="225" height="30" as="geometry">
            <mxRectangle width="225" height="30" as="alternateBounds" />
          </mxGeometry>
        </mxCell>
        <mxCell id="seNCL75p8Slw6cayTFeB-393" value="w18856656_TourStaff" style="shape=table;startSize=30;container=1;collapsible=1;childLayout=tableLayout;fixedRows=1;rowLines=0;fontStyle=1;align=center;resizeLast=1;fontSize=13;" parent="1" vertex="1">
          <mxGeometry x="1700" y="1540" width="240" height="100" as="geometry" />
        </mxCell>
        <mxCell id="seNCL75p8Slw6cayTFeB-394" value="" style="shape=tableRow;horizontal=0;startSize=0;swimlaneHead=0;swimlaneBody=0;fillColor=none;collapsible=0;dropTarget=0;points=[[0,0.5],[1,0.5]];portConstraint=eastwest;top=0;left=0;right=0;bottom=1;fontSize=13;" parent="seNCL75p8Slw6cayTFeB-393" vertex="1">
          <mxGeometry y="30" width="240" height="30" as="geometry" />
        </mxCell>
        <mxCell id="seNCL75p8Slw6cayTFeB-396" value="w18856656_TechnicalExpertise" style="shape=partialRectangle;connectable=0;fillColor=none;top=0;left=0;bottom=0;right=0;align=left;spacingLeft=6;fontStyle=5;overflow=hidden;fontSize=13;" parent="seNCL75p8Slw6cayTFeB-394" vertex="1">
          <mxGeometry width="240" height="30" as="geometry">
            <mxRectangle width="240" height="30" as="alternateBounds" />
          </mxGeometry>
        </mxCell>
        <mxCell id="seNCL75p8Slw6cayTFeB-397" value="" style="shape=tableRow;horizontal=0;startSize=0;swimlaneHead=0;swimlaneBody=0;fillColor=none;collapsible=0;dropTarget=0;points=[[0,0.5],[1,0.5]];portConstraint=eastwest;top=0;left=0;right=0;bottom=0;fontSize=13;" parent="seNCL75p8Slw6cayTFeB-393" vertex="1">
          <mxGeometry y="60" width="240" height="20" as="geometry" />
        </mxCell>
        <mxCell id="seNCL75p8Slw6cayTFeB-399" value="w1856656_Certifications" style="shape=partialRectangle;connectable=0;fillColor=none;top=0;left=0;bottom=0;right=0;align=left;spacingLeft=6;overflow=hidden;fontSize=13;" parent="seNCL75p8Slw6cayTFeB-397" vertex="1">
          <mxGeometry width="240" height="20" as="geometry">
            <mxRectangle width="240" height="20" as="alternateBounds" />
          </mxGeometry>
        </mxCell>
        <mxCell id="FneM1opVlrGnefaTa8es-21" style="shape=tableRow;horizontal=0;startSize=0;swimlaneHead=0;swimlaneBody=0;fillColor=none;collapsible=0;dropTarget=0;points=[[0,0.5],[1,0.5]];portConstraint=eastwest;top=0;left=0;right=0;bottom=0;fontSize=13;" parent="seNCL75p8Slw6cayTFeB-393" vertex="1">
          <mxGeometry y="80" width="240" height="20" as="geometry" />
        </mxCell>
        <mxCell id="FneM1opVlrGnefaTa8es-23" style="shape=partialRectangle;connectable=0;fillColor=none;top=0;left=0;bottom=0;right=0;align=left;spacingLeft=6;overflow=hidden;fontSize=13;" parent="FneM1opVlrGnefaTa8es-21" vertex="1">
          <mxGeometry width="240" height="20" as="geometry">
            <mxRectangle width="240" height="20" as="alternateBounds" />
          </mxGeometry>
        </mxCell>
        <mxCell id="seNCL75p8Slw6cayTFeB-406" value="w18856656_Booking" style="shape=table;startSize=30;container=1;collapsible=1;childLayout=tableLayout;fixedRows=1;rowLines=0;fontStyle=1;align=center;resizeLast=1;fontSize=13;" parent="1" vertex="1">
          <mxGeometry x="1010" y="170" width="265" height="140" as="geometry" />
        </mxCell>
        <mxCell id="seNCL75p8Slw6cayTFeB-407" value="" style="shape=tableRow;horizontal=0;startSize=0;swimlaneHead=0;swimlaneBody=0;fillColor=none;collapsible=0;dropTarget=0;points=[[0,0.5],[1,0.5]];portConstraint=eastwest;top=0;left=0;right=0;bottom=1;fontSize=13;" parent="seNCL75p8Slw6cayTFeB-406" vertex="1">
          <mxGeometry y="30" width="265" height="30" as="geometry" />
        </mxCell>
        <mxCell id="seNCL75p8Slw6cayTFeB-408" value="{PK}" style="shape=partialRectangle;connectable=0;fillColor=none;top=0;left=0;bottom=0;right=0;fontStyle=1;overflow=hidden;fontSize=13;" parent="seNCL75p8Slw6cayTFeB-407" vertex="1">
          <mxGeometry width="30" height="30" as="geometry">
            <mxRectangle width="30" height="30" as="alternateBounds" />
          </mxGeometry>
        </mxCell>
        <mxCell id="seNCL75p8Slw6cayTFeB-409" value="w18856656_BookingID" style="shape=partialRectangle;connectable=0;fillColor=none;top=0;left=0;bottom=0;right=0;align=left;spacingLeft=6;fontStyle=5;overflow=hidden;fontSize=13;" parent="seNCL75p8Slw6cayTFeB-407" vertex="1">
          <mxGeometry x="30" width="235" height="30" as="geometry">
            <mxRectangle width="235" height="30" as="alternateBounds" />
          </mxGeometry>
        </mxCell>
        <mxCell id="seNCL75p8Slw6cayTFeB-410" value="" style="shape=tableRow;horizontal=0;startSize=0;swimlaneHead=0;swimlaneBody=0;fillColor=none;collapsible=0;dropTarget=0;points=[[0,0.5],[1,0.5]];portConstraint=eastwest;top=0;left=0;right=0;bottom=0;fontSize=13;" parent="seNCL75p8Slw6cayTFeB-406" vertex="1">
          <mxGeometry y="60" width="265" height="30" as="geometry" />
        </mxCell>
        <mxCell id="seNCL75p8Slw6cayTFeB-411" value="" style="shape=partialRectangle;connectable=0;fillColor=none;top=0;left=0;bottom=0;right=0;editable=1;overflow=hidden;fontSize=13;" parent="seNCL75p8Slw6cayTFeB-410" vertex="1">
          <mxGeometry width="30" height="30" as="geometry">
            <mxRectangle width="30" height="30" as="alternateBounds" />
          </mxGeometry>
        </mxCell>
        <mxCell id="seNCL75p8Slw6cayTFeB-412" value="w18856656_BookingCost" style="shape=partialRectangle;connectable=0;fillColor=none;top=0;left=0;bottom=0;right=0;align=left;spacingLeft=6;overflow=hidden;fontSize=13;" parent="seNCL75p8Slw6cayTFeB-410" vertex="1">
          <mxGeometry x="30" width="235" height="30" as="geometry">
            <mxRectangle width="235" height="30" as="alternateBounds" />
          </mxGeometry>
        </mxCell>
        <mxCell id="seNCL75p8Slw6cayTFeB-413" value="" style="shape=tableRow;horizontal=0;startSize=0;swimlaneHead=0;swimlaneBody=0;fillColor=none;collapsible=0;dropTarget=0;points=[[0,0.5],[1,0.5]];portConstraint=eastwest;top=0;left=0;right=0;bottom=0;fontSize=13;" parent="seNCL75p8Slw6cayTFeB-406" vertex="1">
          <mxGeometry y="90" width="265" height="30" as="geometry" />
        </mxCell>
        <mxCell id="seNCL75p8Slw6cayTFeB-414" value="" style="shape=partialRectangle;connectable=0;fillColor=none;top=0;left=0;bottom=0;right=0;editable=1;overflow=hidden;fontSize=13;" parent="seNCL75p8Slw6cayTFeB-413" vertex="1">
          <mxGeometry width="30" height="30" as="geometry">
            <mxRectangle width="30" height="30" as="alternateBounds" />
          </mxGeometry>
        </mxCell>
        <mxCell id="seNCL75p8Slw6cayTFeB-415" value="w18856656_Date" style="shape=partialRectangle;connectable=0;fillColor=none;top=0;left=0;bottom=0;right=0;align=left;spacingLeft=6;overflow=hidden;fontSize=13;" parent="seNCL75p8Slw6cayTFeB-413" vertex="1">
          <mxGeometry x="30" width="235" height="30" as="geometry">
            <mxRectangle width="235" height="30" as="alternateBounds" />
          </mxGeometry>
        </mxCell>
        <mxCell id="seNCL75p8Slw6cayTFeB-416" value="" style="shape=tableRow;horizontal=0;startSize=0;swimlaneHead=0;swimlaneBody=0;fillColor=none;collapsible=0;dropTarget=0;points=[[0,0.5],[1,0.5]];portConstraint=eastwest;top=0;left=0;right=0;bottom=0;fontSize=13;" parent="seNCL75p8Slw6cayTFeB-406" vertex="1">
          <mxGeometry y="120" width="265" height="20" as="geometry" />
        </mxCell>
        <mxCell id="seNCL75p8Slw6cayTFeB-417" value="" style="shape=partialRectangle;connectable=0;fillColor=none;top=0;left=0;bottom=0;right=0;editable=1;overflow=hidden;fontSize=13;" parent="seNCL75p8Slw6cayTFeB-416" vertex="1">
          <mxGeometry width="30" height="20" as="geometry">
            <mxRectangle width="30" height="20" as="alternateBounds" />
          </mxGeometry>
        </mxCell>
        <mxCell id="seNCL75p8Slw6cayTFeB-418" value="" style="shape=partialRectangle;connectable=0;fillColor=none;top=0;left=0;bottom=0;right=0;align=left;spacingLeft=6;overflow=hidden;fontSize=13;" parent="seNCL75p8Slw6cayTFeB-416" vertex="1">
          <mxGeometry x="30" width="235" height="20" as="geometry">
            <mxRectangle width="235" height="20" as="alternateBounds" />
          </mxGeometry>
        </mxCell>
        <mxCell id="seNCL75p8Slw6cayTFeB-433" value="{Mandatory,AND}" style="text;html=1;strokeColor=none;fillColor=none;align=center;verticalAlign=middle;whiteSpace=wrap;rounded=0;fontSize=13;rotation=270;" parent="1" vertex="1">
          <mxGeometry x="1685" y="400" width="60" height="30" as="geometry" />
        </mxCell>
        <mxCell id="seNCL75p8Slw6cayTFeB-448" style="edgeStyle=orthogonalEdgeStyle;rounded=0;orthogonalLoop=1;jettySize=auto;html=1;exitX=0;exitY=0.5;exitDx=0;exitDy=0;entryX=0;entryY=0.5;entryDx=0;entryDy=0;fontSize=13;endArrow=none;endFill=0;" parent="1" source="seNCL75p8Slw6cayTFeB-434" edge="1">
          <mxGeometry relative="1" as="geometry">
            <Array as="points">
              <mxPoint x="1810" y="520" />
              <mxPoint x="1810" y="245" />
            </Array>
          </mxGeometry>
        </mxCell>
        <mxCell id="seNCL75p8Slw6cayTFeB-450" style="edgeStyle=orthogonalEdgeStyle;rounded=0;orthogonalLoop=1;jettySize=auto;html=1;exitX=0;exitY=0.5;exitDx=0;exitDy=0;entryX=0;entryY=0.5;entryDx=0;entryDy=0;fontSize=13;endArrow=none;endFill=0;" parent="1" source="seNCL75p8Slw6cayTFeB-434" target="seNCL75p8Slw6cayTFeB-341" edge="1">
          <mxGeometry relative="1" as="geometry">
            <Array as="points">
              <mxPoint x="1960" y="520" />
            </Array>
          </mxGeometry>
        </mxCell>
        <mxCell id="seNCL75p8Slw6cayTFeB-451" style="edgeStyle=orthogonalEdgeStyle;rounded=0;orthogonalLoop=1;jettySize=auto;html=1;exitX=0;exitY=0.5;exitDx=0;exitDy=0;entryX=0;entryY=0.5;entryDx=0;entryDy=0;fontSize=13;endArrow=none;endFill=0;" parent="1" source="seNCL75p8Slw6cayTFeB-434" target="seNCL75p8Slw6cayTFeB-351" edge="1">
          <mxGeometry relative="1" as="geometry">
            <Array as="points">
              <mxPoint x="1840" y="520" />
              <mxPoint x="1840" y="820" />
            </Array>
          </mxGeometry>
        </mxCell>
        <mxCell id="seNCL75p8Slw6cayTFeB-434" value="" style="triangle;whiteSpace=wrap;html=1;fontSize=13;direction=west;" parent="1" vertex="1">
          <mxGeometry x="1610" y="480" width="60" height="80" as="geometry" />
        </mxCell>
        <mxCell id="seNCL75p8Slw6cayTFeB-443" value="{Mandatory, OR}" style="text;html=1;strokeColor=none;fillColor=none;align=center;verticalAlign=middle;whiteSpace=wrap;rounded=0;fontSize=13;" parent="1" vertex="1">
          <mxGeometry x="1605" y="1290" width="140" height="30" as="geometry" />
        </mxCell>
        <mxCell id="seNCL75p8Slw6cayTFeB-458" style="edgeStyle=orthogonalEdgeStyle;rounded=0;orthogonalLoop=1;jettySize=auto;html=1;entryX=0.609;entryY=-0.05;entryDx=0;entryDy=0;entryPerimeter=0;fontSize=13;endArrow=none;endFill=0;" parent="1" source="seNCL75p8Slw6cayTFeB-410" target="seNCL75p8Slw6cayTFeB-209" edge="1">
          <mxGeometry relative="1" as="geometry" />
        </mxCell>
        <mxCell id="seNCL75p8Slw6cayTFeB-459" value="w1856656_Cities" style="shape=table;startSize=30;container=1;collapsible=1;childLayout=tableLayout;fixedRows=1;rowLines=0;fontStyle=1;align=center;resizeLast=1;fontSize=13;" parent="1" vertex="1">
          <mxGeometry x="490" y="880" width="220" height="120" as="geometry" />
        </mxCell>
        <mxCell id="seNCL75p8Slw6cayTFeB-460" value="" style="shape=tableRow;horizontal=0;startSize=0;swimlaneHead=0;swimlaneBody=0;fillColor=none;collapsible=0;dropTarget=0;points=[[0,0.5],[1,0.5]];portConstraint=eastwest;top=0;left=0;right=0;bottom=1;fontSize=13;" parent="seNCL75p8Slw6cayTFeB-459" vertex="1">
          <mxGeometry y="30" width="220" height="30" as="geometry" />
        </mxCell>
        <mxCell id="seNCL75p8Slw6cayTFeB-461" value="{PK}" style="shape=partialRectangle;connectable=0;fillColor=none;top=0;left=0;bottom=0;right=0;fontStyle=1;overflow=hidden;fontSize=13;" parent="seNCL75p8Slw6cayTFeB-460" vertex="1">
          <mxGeometry width="30" height="30" as="geometry">
            <mxRectangle width="30" height="30" as="alternateBounds" />
          </mxGeometry>
        </mxCell>
        <mxCell id="seNCL75p8Slw6cayTFeB-462" value="w1856656_ CityID" style="shape=partialRectangle;connectable=0;fillColor=none;top=0;left=0;bottom=0;right=0;align=left;spacingLeft=6;fontStyle=5;overflow=hidden;fontSize=13;" parent="seNCL75p8Slw6cayTFeB-460" vertex="1">
          <mxGeometry x="30" width="190" height="30" as="geometry">
            <mxRectangle width="190" height="30" as="alternateBounds" />
          </mxGeometry>
        </mxCell>
        <mxCell id="seNCL75p8Slw6cayTFeB-463" value="" style="shape=tableRow;horizontal=0;startSize=0;swimlaneHead=0;swimlaneBody=0;fillColor=none;collapsible=0;dropTarget=0;points=[[0,0.5],[1,0.5]];portConstraint=eastwest;top=0;left=0;right=0;bottom=0;fontSize=13;" parent="seNCL75p8Slw6cayTFeB-459" vertex="1">
          <mxGeometry y="60" width="220" height="30" as="geometry" />
        </mxCell>
        <mxCell id="seNCL75p8Slw6cayTFeB-464" value="" style="shape=partialRectangle;connectable=0;fillColor=none;top=0;left=0;bottom=0;right=0;editable=1;overflow=hidden;fontSize=13;" parent="seNCL75p8Slw6cayTFeB-463" vertex="1">
          <mxGeometry width="30" height="30" as="geometry">
            <mxRectangle width="30" height="30" as="alternateBounds" />
          </mxGeometry>
        </mxCell>
        <mxCell id="seNCL75p8Slw6cayTFeB-465" value="w1856656_Country" style="shape=partialRectangle;connectable=0;fillColor=none;top=0;left=0;bottom=0;right=0;align=left;spacingLeft=6;overflow=hidden;fontSize=13;" parent="seNCL75p8Slw6cayTFeB-463" vertex="1">
          <mxGeometry x="30" width="190" height="30" as="geometry">
            <mxRectangle width="190" height="30" as="alternateBounds" />
          </mxGeometry>
        </mxCell>
        <mxCell id="seNCL75p8Slw6cayTFeB-466" value="" style="shape=tableRow;horizontal=0;startSize=0;swimlaneHead=0;swimlaneBody=0;fillColor=none;collapsible=0;dropTarget=0;points=[[0,0.5],[1,0.5]];portConstraint=eastwest;top=0;left=0;right=0;bottom=0;fontSize=13;" parent="seNCL75p8Slw6cayTFeB-459" vertex="1">
          <mxGeometry y="90" width="220" height="30" as="geometry" />
        </mxCell>
        <mxCell id="seNCL75p8Slw6cayTFeB-467" value="" style="shape=partialRectangle;connectable=0;fillColor=none;top=0;left=0;bottom=0;right=0;editable=1;overflow=hidden;fontSize=13;" parent="seNCL75p8Slw6cayTFeB-466" vertex="1">
          <mxGeometry width="30" height="30" as="geometry">
            <mxRectangle width="30" height="30" as="alternateBounds" />
          </mxGeometry>
        </mxCell>
        <mxCell id="seNCL75p8Slw6cayTFeB-468" value="w1856656_Region" style="shape=partialRectangle;connectable=0;fillColor=none;top=0;left=0;bottom=0;right=0;align=left;spacingLeft=6;overflow=hidden;fontSize=13;" parent="seNCL75p8Slw6cayTFeB-466" vertex="1">
          <mxGeometry x="30" width="190" height="30" as="geometry">
            <mxRectangle width="190" height="30" as="alternateBounds" />
          </mxGeometry>
        </mxCell>
        <mxCell id="seNCL75p8Slw6cayTFeB-473" value="" style="triangle;whiteSpace=wrap;html=1;fontSize=13;direction=east;fillColor=#000000;" parent="1" vertex="1">
          <mxGeometry x="837.5" y="920" width="30" height="50" as="geometry" />
        </mxCell>
        <mxCell id="seNCL75p8Slw6cayTFeB-474" value="Has" style="text;html=1;strokeColor=none;fillColor=none;align=center;verticalAlign=middle;whiteSpace=wrap;rounded=0;fontSize=13;rotation=0;" parent="1" vertex="1">
          <mxGeometry x="790" y="930" width="60" height="30" as="geometry" />
        </mxCell>
        <mxCell id="seNCL75p8Slw6cayTFeB-478" value="0..*" style="text;html=1;strokeColor=none;fillColor=none;align=center;verticalAlign=middle;whiteSpace=wrap;rounded=0;fontSize=13;" parent="1" vertex="1">
          <mxGeometry x="955" y="250" width="60" height="30" as="geometry" />
        </mxCell>
        <mxCell id="seNCL75p8Slw6cayTFeB-479" value="1..1" style="text;html=1;strokeColor=none;fillColor=none;align=center;verticalAlign=middle;whiteSpace=wrap;rounded=0;fontSize=13;" parent="1" vertex="1">
          <mxGeometry x="760" y="327.5" width="60" height="30" as="geometry" />
        </mxCell>
        <mxCell id="seNCL75p8Slw6cayTFeB-480" value="Refers" style="text;html=1;strokeColor=none;fillColor=none;align=center;verticalAlign=middle;whiteSpace=wrap;rounded=0;fontSize=13;" parent="1" vertex="1">
          <mxGeometry x="1530" y="250" width="60" height="30" as="geometry" />
        </mxCell>
        <mxCell id="seNCL75p8Slw6cayTFeB-482" value="1..3" style="text;html=1;strokeColor=none;fillColor=none;align=center;verticalAlign=middle;whiteSpace=wrap;rounded=0;fontSize=13;" parent="1" vertex="1">
          <mxGeometry x="1520" y="330" width="60" height="30" as="geometry" />
        </mxCell>
        <mxCell id="seNCL75p8Slw6cayTFeB-484" value="0..*" style="text;html=1;strokeColor=none;fillColor=none;align=center;verticalAlign=middle;whiteSpace=wrap;rounded=0;fontSize=13;" parent="1" vertex="1">
          <mxGeometry x="1270" y="220" width="60" height="30" as="geometry" />
        </mxCell>
        <mxCell id="seNCL75p8Slw6cayTFeB-486" value="" style="triangle;whiteSpace=wrap;html=1;fontSize=13;direction=south;fillColor=#000000;" parent="1" vertex="1">
          <mxGeometry x="1540" y="280" width="40" height="40" as="geometry" />
        </mxCell>
        <mxCell id="seNCL75p8Slw6cayTFeB-491" style="edgeStyle=orthogonalEdgeStyle;rounded=0;orthogonalLoop=1;jettySize=auto;html=1;fontSize=13;endArrow=none;endFill=0;" parent="1" source="seNCL75p8Slw6cayTFeB-230" target="seNCL75p8Slw6cayTFeB-239" edge="1">
          <mxGeometry relative="1" as="geometry" />
        </mxCell>
        <mxCell id="seNCL75p8Slw6cayTFeB-492" value="Covers" style="text;html=1;strokeColor=none;fillColor=none;align=center;verticalAlign=middle;whiteSpace=wrap;rounded=0;fontSize=13;" parent="1" vertex="1">
          <mxGeometry x="1170" y="700" width="60" height="30" as="geometry" />
        </mxCell>
        <mxCell id="seNCL75p8Slw6cayTFeB-493" value="" style="triangle;whiteSpace=wrap;html=1;fontSize=13;direction=south;fillColor=#000000;" parent="1" vertex="1">
          <mxGeometry x="1170" y="730" width="60" height="30" as="geometry" />
        </mxCell>
        <mxCell id="seNCL75p8Slw6cayTFeB-494" value="8..*" style="text;html=1;strokeColor=none;fillColor=none;align=center;verticalAlign=middle;whiteSpace=wrap;rounded=0;fontSize=13;" parent="1" vertex="1">
          <mxGeometry x="1070" y="810" width="60" height="30" as="geometry" />
        </mxCell>
        <mxCell id="seNCL75p8Slw6cayTFeB-503" style="edgeStyle=orthogonalEdgeStyle;rounded=0;orthogonalLoop=1;jettySize=auto;html=1;exitX=0;exitY=0.5;exitDx=0;exitDy=0;fontSize=13;endArrow=none;endFill=0;" parent="1" source="seNCL75p8Slw6cayTFeB-502" target="seNCL75p8Slw6cayTFeB-380" edge="1">
          <mxGeometry relative="1" as="geometry" />
        </mxCell>
        <mxCell id="seNCL75p8Slw6cayTFeB-504" style="edgeStyle=orthogonalEdgeStyle;rounded=0;orthogonalLoop=1;jettySize=auto;html=1;exitX=0;exitY=0.5;exitDx=0;exitDy=0;entryX=0.5;entryY=0;entryDx=0;entryDy=0;fontSize=13;endArrow=none;endFill=0;" parent="1" source="seNCL75p8Slw6cayTFeB-502" target="seNCL75p8Slw6cayTFeB-393" edge="1">
          <mxGeometry relative="1" as="geometry" />
        </mxCell>
        <mxCell id="seNCL75p8Slw6cayTFeB-502" value="" style="triangle;whiteSpace=wrap;html=1;fontSize=13;direction=north;" parent="1" vertex="1">
          <mxGeometry x="1635" y="1320" width="80" height="60" as="geometry" />
        </mxCell>
        <mxCell id="seNCL75p8Slw6cayTFeB-506" value="w1856656_Equipments" style="shape=table;startSize=30;container=1;collapsible=1;childLayout=tableLayout;fixedRows=1;rowLines=0;fontStyle=1;align=center;resizeLast=1;fontSize=13;" parent="1" vertex="1">
          <mxGeometry x="1991" y="1100" width="260" height="190" as="geometry" />
        </mxCell>
        <mxCell id="seNCL75p8Slw6cayTFeB-507" value="" style="shape=tableRow;horizontal=0;startSize=0;swimlaneHead=0;swimlaneBody=0;fillColor=none;collapsible=0;dropTarget=0;points=[[0,0.5],[1,0.5]];portConstraint=eastwest;top=0;left=0;right=0;bottom=1;fontSize=13;" parent="seNCL75p8Slw6cayTFeB-506" vertex="1">
          <mxGeometry y="30" width="260" height="30" as="geometry" />
        </mxCell>
        <mxCell id="seNCL75p8Slw6cayTFeB-508" value="{PK}" style="shape=partialRectangle;connectable=0;fillColor=none;top=0;left=0;bottom=0;right=0;fontStyle=1;overflow=hidden;fontSize=13;" parent="seNCL75p8Slw6cayTFeB-507" vertex="1">
          <mxGeometry width="30" height="30" as="geometry">
            <mxRectangle width="30" height="30" as="alternateBounds" />
          </mxGeometry>
        </mxCell>
        <mxCell id="seNCL75p8Slw6cayTFeB-509" value="w1856656_EquipmentID" style="shape=partialRectangle;connectable=0;fillColor=none;top=0;left=0;bottom=0;right=0;align=left;spacingLeft=6;fontStyle=5;overflow=hidden;fontSize=13;" parent="seNCL75p8Slw6cayTFeB-507" vertex="1">
          <mxGeometry x="30" width="230" height="30" as="geometry">
            <mxRectangle width="230" height="30" as="alternateBounds" />
          </mxGeometry>
        </mxCell>
        <mxCell id="seNCL75p8Slw6cayTFeB-510" value="" style="shape=tableRow;horizontal=0;startSize=0;swimlaneHead=0;swimlaneBody=0;fillColor=none;collapsible=0;dropTarget=0;points=[[0,0.5],[1,0.5]];portConstraint=eastwest;top=0;left=0;right=0;bottom=0;fontSize=13;" parent="seNCL75p8Slw6cayTFeB-506" vertex="1">
          <mxGeometry y="60" width="260" height="30" as="geometry" />
        </mxCell>
        <mxCell id="seNCL75p8Slw6cayTFeB-511" value="" style="shape=partialRectangle;connectable=0;fillColor=none;top=0;left=0;bottom=0;right=0;editable=1;overflow=hidden;fontSize=13;" parent="seNCL75p8Slw6cayTFeB-510" vertex="1">
          <mxGeometry width="30" height="30" as="geometry">
            <mxRectangle width="30" height="30" as="alternateBounds" />
          </mxGeometry>
        </mxCell>
        <mxCell id="seNCL75p8Slw6cayTFeB-512" value="w1856656_EquipmentName" style="shape=partialRectangle;connectable=0;fillColor=none;top=0;left=0;bottom=0;right=0;align=left;spacingLeft=6;overflow=hidden;fontSize=13;" parent="seNCL75p8Slw6cayTFeB-510" vertex="1">
          <mxGeometry x="30" width="230" height="30" as="geometry">
            <mxRectangle width="230" height="30" as="alternateBounds" />
          </mxGeometry>
        </mxCell>
        <mxCell id="seNCL75p8Slw6cayTFeB-513" value="" style="shape=tableRow;horizontal=0;startSize=0;swimlaneHead=0;swimlaneBody=0;fillColor=none;collapsible=0;dropTarget=0;points=[[0,0.5],[1,0.5]];portConstraint=eastwest;top=0;left=0;right=0;bottom=0;fontSize=13;" parent="seNCL75p8Slw6cayTFeB-506" vertex="1">
          <mxGeometry y="90" width="260" height="30" as="geometry" />
        </mxCell>
        <mxCell id="seNCL75p8Slw6cayTFeB-514" value="" style="shape=partialRectangle;connectable=0;fillColor=none;top=0;left=0;bottom=0;right=0;editable=1;overflow=hidden;fontSize=13;" parent="seNCL75p8Slw6cayTFeB-513" vertex="1">
          <mxGeometry width="30" height="30" as="geometry">
            <mxRectangle width="30" height="30" as="alternateBounds" />
          </mxGeometry>
        </mxCell>
        <mxCell id="seNCL75p8Slw6cayTFeB-515" value="w1856656_EquipmentSize" style="shape=partialRectangle;connectable=0;fillColor=none;top=0;left=0;bottom=0;right=0;align=left;spacingLeft=6;overflow=hidden;fontSize=13;" parent="seNCL75p8Slw6cayTFeB-513" vertex="1">
          <mxGeometry x="30" width="230" height="30" as="geometry">
            <mxRectangle width="230" height="30" as="alternateBounds" />
          </mxGeometry>
        </mxCell>
        <mxCell id="seNCL75p8Slw6cayTFeB-516" value="" style="shape=tableRow;horizontal=0;startSize=0;swimlaneHead=0;swimlaneBody=0;fillColor=none;collapsible=0;dropTarget=0;points=[[0,0.5],[1,0.5]];portConstraint=eastwest;top=0;left=0;right=0;bottom=0;fontSize=13;" parent="seNCL75p8Slw6cayTFeB-506" vertex="1">
          <mxGeometry y="120" width="260" height="40" as="geometry" />
        </mxCell>
        <mxCell id="seNCL75p8Slw6cayTFeB-517" value="" style="shape=partialRectangle;connectable=0;fillColor=none;top=0;left=0;bottom=0;right=0;editable=1;overflow=hidden;fontSize=13;" parent="seNCL75p8Slw6cayTFeB-516" vertex="1">
          <mxGeometry width="30" height="40" as="geometry">
            <mxRectangle width="30" height="40" as="alternateBounds" />
          </mxGeometry>
        </mxCell>
        <mxCell id="seNCL75p8Slw6cayTFeB-518" value="w1856656_EquipmentStyle" style="shape=partialRectangle;connectable=0;fillColor=none;top=0;left=0;bottom=0;right=0;align=left;spacingLeft=6;overflow=hidden;fontSize=13;" parent="seNCL75p8Slw6cayTFeB-516" vertex="1">
          <mxGeometry x="30" width="230" height="40" as="geometry">
            <mxRectangle width="230" height="40" as="alternateBounds" />
          </mxGeometry>
        </mxCell>
        <mxCell id="seNCL75p8Slw6cayTFeB-528" style="shape=tableRow;horizontal=0;startSize=0;swimlaneHead=0;swimlaneBody=0;fillColor=none;collapsible=0;dropTarget=0;points=[[0,0.5],[1,0.5]];portConstraint=eastwest;top=0;left=0;right=0;bottom=0;fontSize=13;" parent="seNCL75p8Slw6cayTFeB-506" vertex="1">
          <mxGeometry y="160" width="260" height="30" as="geometry" />
        </mxCell>
        <mxCell id="seNCL75p8Slw6cayTFeB-529" style="shape=partialRectangle;connectable=0;fillColor=none;top=0;left=0;bottom=0;right=0;editable=1;overflow=hidden;fontSize=13;" parent="seNCL75p8Slw6cayTFeB-528" vertex="1">
          <mxGeometry width="30" height="30" as="geometry">
            <mxRectangle width="30" height="30" as="alternateBounds" />
          </mxGeometry>
        </mxCell>
        <mxCell id="seNCL75p8Slw6cayTFeB-530" value="w1856656_EquipmentCondition" style="shape=partialRectangle;connectable=0;fillColor=none;top=0;left=0;bottom=0;right=0;align=left;spacingLeft=6;overflow=hidden;fontSize=13;" parent="seNCL75p8Slw6cayTFeB-528" vertex="1">
          <mxGeometry x="30" width="230" height="30" as="geometry">
            <mxRectangle width="230" height="30" as="alternateBounds" />
          </mxGeometry>
        </mxCell>
        <mxCell id="seNCL75p8Slw6cayTFeB-520" style="edgeStyle=orthogonalEdgeStyle;rounded=0;orthogonalLoop=1;jettySize=auto;html=1;exitX=1;exitY=0.5;exitDx=0;exitDy=0;entryX=1;entryY=0.5;entryDx=0;entryDy=0;fontSize=13;endArrow=none;endFill=0;" parent="1" source="seNCL75p8Slw6cayTFeB-513" target="seNCL75p8Slw6cayTFeB-335" edge="1">
          <mxGeometry relative="1" as="geometry">
            <Array as="points">
              <mxPoint x="2380" y="1205" />
              <mxPoint x="2380" y="485" />
            </Array>
          </mxGeometry>
        </mxCell>
        <mxCell id="seNCL75p8Slw6cayTFeB-522" value="" style="triangle;whiteSpace=wrap;html=1;fontSize=13;direction=north;fillColor=#000000;" parent="1" vertex="1">
          <mxGeometry x="2170" y="1400" width="60" height="40" as="geometry" />
        </mxCell>
        <mxCell id="seNCL75p8Slw6cayTFeB-524" value="Maintains" style="text;html=1;strokeColor=none;fillColor=none;align=center;verticalAlign=middle;whiteSpace=wrap;rounded=0;fontSize=13;" parent="1" vertex="1">
          <mxGeometry x="2170" y="1440" width="60" height="30" as="geometry" />
        </mxCell>
        <mxCell id="seNCL75p8Slw6cayTFeB-531" style="edgeStyle=orthogonalEdgeStyle;rounded=0;orthogonalLoop=1;jettySize=auto;html=1;entryX=0.75;entryY=1;entryDx=0;entryDy=0;fontSize=13;endArrow=none;endFill=0;" parent="1" target="seNCL75p8Slw6cayTFeB-506" edge="1">
          <mxGeometry relative="1" as="geometry" />
        </mxCell>
        <mxCell id="seNCL75p8Slw6cayTFeB-533" value="0..*" style="text;html=1;strokeColor=none;fillColor=none;align=center;verticalAlign=middle;whiteSpace=wrap;rounded=0;fontSize=13;" parent="1" vertex="1">
          <mxGeometry x="2150" y="1290" width="60" height="30" as="geometry" />
        </mxCell>
        <mxCell id="seNCL75p8Slw6cayTFeB-534" value="1..*" style="text;html=1;strokeColor=none;fillColor=none;align=center;verticalAlign=middle;whiteSpace=wrap;rounded=0;fontSize=13;" parent="1" vertex="1">
          <mxGeometry x="1931" y="1585" width="60" height="30" as="geometry" />
        </mxCell>
        <mxCell id="seNCL75p8Slw6cayTFeB-535" value="" style="triangle;whiteSpace=wrap;html=1;fontSize=13;direction=south;fillColor=#000000;" parent="1" vertex="1">
          <mxGeometry x="2400" y="730" width="70" height="40" as="geometry" />
        </mxCell>
        <mxCell id="seNCL75p8Slw6cayTFeB-536" value="Has" style="text;html=1;strokeColor=none;fillColor=none;align=center;verticalAlign=middle;whiteSpace=wrap;rounded=0;fontSize=13;" parent="1" vertex="1">
          <mxGeometry x="2405" y="770" width="60" height="30" as="geometry" />
        </mxCell>
        <mxCell id="seNCL75p8Slw6cayTFeB-537" value="1..*" style="text;html=1;strokeColor=none;fillColor=none;align=center;verticalAlign=middle;whiteSpace=wrap;rounded=0;fontSize=13;" parent="1" vertex="1">
          <mxGeometry x="2260" y="1210" width="60" height="30" as="geometry" />
        </mxCell>
        <mxCell id="seNCL75p8Slw6cayTFeB-538" value="0..*" style="text;html=1;strokeColor=none;fillColor=none;align=center;verticalAlign=middle;whiteSpace=wrap;rounded=0;fontSize=13;" parent="1" vertex="1">
          <mxGeometry x="2180" y="460" width="60" height="30" as="geometry" />
        </mxCell>
        <mxCell id="seNCL75p8Slw6cayTFeB-541" style="edgeStyle=orthogonalEdgeStyle;rounded=0;orthogonalLoop=1;jettySize=auto;html=1;entryX=0;entryY=-0.096;entryDx=0;entryDy=0;entryPerimeter=0;fontSize=13;endArrow=none;endFill=0;" parent="1" source="seNCL75p8Slw6cayTFeB-466" target="seNCL75p8Slw6cayTFeB-249" edge="1">
          <mxGeometry relative="1" as="geometry">
            <Array as="points">
              <mxPoint x="980" y="985" />
            </Array>
          </mxGeometry>
        </mxCell>
        <mxCell id="seNCL75p8Slw6cayTFeB-542" value="0..*" style="text;html=1;strokeColor=none;fillColor=none;align=center;verticalAlign=middle;whiteSpace=wrap;rounded=0;fontSize=13;" parent="1" vertex="1">
          <mxGeometry x="930" y="960" width="60" height="30" as="geometry" />
        </mxCell>
        <mxCell id="seNCL75p8Slw6cayTFeB-543" value="1..*" style="text;html=1;strokeColor=none;fillColor=none;align=center;verticalAlign=middle;whiteSpace=wrap;rounded=0;fontSize=13;" parent="1" vertex="1">
          <mxGeometry x="700" y="960" width="60" height="30" as="geometry" />
        </mxCell>
        <mxCell id="seNCL75p8Slw6cayTFeB-573" value="w18856656_Landmarks" style="swimlane;fontStyle=0;childLayout=stackLayout;horizontal=1;startSize=30;horizontalStack=0;resizeParent=1;resizeParentMax=0;resizeLast=0;collapsible=1;marginBottom=0;fontSize=13;" parent="1" vertex="1">
          <mxGeometry x="890" y="1230" width="190" height="180" as="geometry" />
        </mxCell>
        <mxCell id="seNCL75p8Slw6cayTFeB-574" value="w18856656_Monuments" style="text;strokeColor=none;fillColor=none;align=left;verticalAlign=middle;spacingLeft=4;spacingRight=4;overflow=hidden;points=[[0,0.5],[1,0.5]];portConstraint=eastwest;rotatable=0;fontSize=13;" parent="seNCL75p8Slw6cayTFeB-573" vertex="1">
          <mxGeometry y="30" width="190" height="30" as="geometry" />
        </mxCell>
        <mxCell id="seNCL75p8Slw6cayTFeB-575" value="w18856656_Statues" style="text;strokeColor=none;fillColor=none;align=left;verticalAlign=middle;spacingLeft=4;spacingRight=4;overflow=hidden;points=[[0,0.5],[1,0.5]];portConstraint=eastwest;rotatable=0;fontSize=13;" parent="seNCL75p8Slw6cayTFeB-573" vertex="1">
          <mxGeometry y="60" width="190" height="30" as="geometry" />
        </mxCell>
        <mxCell id="seNCL75p8Slw6cayTFeB-576" value="w18856656_Building" style="text;strokeColor=none;fillColor=none;align=left;verticalAlign=middle;spacingLeft=4;spacingRight=4;overflow=hidden;points=[[0,0.5],[1,0.5]];portConstraint=eastwest;rotatable=0;fontSize=13;" parent="seNCL75p8Slw6cayTFeB-573" vertex="1">
          <mxGeometry y="90" width="190" height="30" as="geometry" />
        </mxCell>
        <mxCell id="seNCL75p8Slw6cayTFeB-589" value="w18856656_Streets" style="text;strokeColor=none;fillColor=none;align=left;verticalAlign=middle;spacingLeft=4;spacingRight=4;overflow=hidden;points=[[0,0.5],[1,0.5]];portConstraint=eastwest;rotatable=0;fontSize=13;" parent="seNCL75p8Slw6cayTFeB-573" vertex="1">
          <mxGeometry y="120" width="190" height="30" as="geometry" />
        </mxCell>
        <mxCell id="seNCL75p8Slw6cayTFeB-590" value="w18856656_PlaceOfWorship" style="text;strokeColor=none;fillColor=none;align=left;verticalAlign=middle;spacingLeft=4;spacingRight=4;overflow=hidden;points=[[0,0.5],[1,0.5]];portConstraint=eastwest;rotatable=0;fontSize=13;" parent="seNCL75p8Slw6cayTFeB-573" vertex="1">
          <mxGeometry y="150" width="190" height="30" as="geometry" />
        </mxCell>
        <mxCell id="seNCL75p8Slw6cayTFeB-577" value="w18856656_Restaurant" style="swimlane;fontStyle=0;childLayout=stackLayout;horizontal=1;startSize=30;horizontalStack=0;resizeParent=1;resizeParentMax=0;resizeLast=0;collapsible=1;marginBottom=0;fontSize=13;" parent="1" vertex="1">
          <mxGeometry x="1100" y="1230" width="160" height="90" as="geometry" />
        </mxCell>
        <mxCell id="seNCL75p8Slw6cayTFeB-578" value="w18856656_Dishes" style="text;strokeColor=none;fillColor=none;align=left;verticalAlign=middle;spacingLeft=4;spacingRight=4;overflow=hidden;points=[[0,0.5],[1,0.5]];portConstraint=eastwest;rotatable=0;fontSize=13;" parent="seNCL75p8Slw6cayTFeB-577" vertex="1">
          <mxGeometry y="30" width="160" height="30" as="geometry" />
        </mxCell>
        <mxCell id="seNCL75p8Slw6cayTFeB-579" value="w18856656_Drinks" style="text;strokeColor=none;fillColor=none;align=left;verticalAlign=middle;spacingLeft=4;spacingRight=4;overflow=hidden;points=[[0,0.5],[1,0.5]];portConstraint=eastwest;rotatable=0;fontSize=13;" parent="seNCL75p8Slw6cayTFeB-577" vertex="1">
          <mxGeometry y="60" width="160" height="30" as="geometry" />
        </mxCell>
        <mxCell id="seNCL75p8Slw6cayTFeB-583" style="edgeStyle=orthogonalEdgeStyle;rounded=0;orthogonalLoop=1;jettySize=auto;html=1;exitX=0;exitY=0.5;exitDx=0;exitDy=0;entryX=0.5;entryY=0;entryDx=0;entryDy=0;fontSize=13;endArrow=none;endFill=0;" parent="1" source="seNCL75p8Slw6cayTFeB-582" target="seNCL75p8Slw6cayTFeB-573" edge="1">
          <mxGeometry relative="1" as="geometry" />
        </mxCell>
        <mxCell id="seNCL75p8Slw6cayTFeB-584" style="edgeStyle=orthogonalEdgeStyle;rounded=0;orthogonalLoop=1;jettySize=auto;html=1;exitX=0;exitY=0.5;exitDx=0;exitDy=0;entryX=0.626;entryY=0.004;entryDx=0;entryDy=0;entryPerimeter=0;fontSize=13;endArrow=none;endFill=0;" parent="1" source="seNCL75p8Slw6cayTFeB-582" target="seNCL75p8Slw6cayTFeB-577" edge="1">
          <mxGeometry relative="1" as="geometry" />
        </mxCell>
        <mxCell id="seNCL75p8Slw6cayTFeB-582" value="" style="triangle;whiteSpace=wrap;html=1;fontSize=13;direction=north;" parent="1" vertex="1">
          <mxGeometry x="1060" y="1105" width="50" height="30" as="geometry" />
        </mxCell>
        <mxCell id="seNCL75p8Slw6cayTFeB-587" value="{Mandatory, OR}" style="text;html=1;strokeColor=none;fillColor=none;align=center;verticalAlign=middle;whiteSpace=wrap;rounded=0;fontSize=13;" parent="1" vertex="1">
          <mxGeometry x="1112.5" y="1105" width="120" height="30" as="geometry" />
        </mxCell>
        <mxCell id="seNCL75p8Slw6cayTFeB-598" style="edgeStyle=orthogonalEdgeStyle;rounded=0;orthogonalLoop=1;jettySize=auto;html=1;entryX=0.633;entryY=1.033;entryDx=0;entryDy=0;entryPerimeter=0;fontSize=13;endArrow=none;endFill=0;" parent="1" target="seNCL75p8Slw6cayTFeB-230" edge="1">
          <mxGeometry relative="1" as="geometry">
            <Array as="points">
              <mxPoint x="1340" y="1705" />
              <mxPoint x="1340" y="930" />
              <mxPoint x="1524" y="930" />
              <mxPoint x="1524" y="661" />
            </Array>
          </mxGeometry>
        </mxCell>
        <mxCell id="7QcmikivW9vGpo6I47kG-7" style="edgeStyle=orthogonalEdgeStyle;rounded=0;orthogonalLoop=1;jettySize=auto;html=1;entryX=1;entryY=0.5;entryDx=0;entryDy=0;endArrow=none;endFill=0;exitX=0.378;exitY=1.035;exitDx=0;exitDy=0;exitPerimeter=0;" parent="1" source="seNCL75p8Slw6cayTFeB-230" target="seNCL75p8Slw6cayTFeB-306" edge="1">
          <mxGeometry relative="1" as="geometry">
            <Array as="points">
              <mxPoint x="1467" y="695" />
              <mxPoint x="1310" y="695" />
              <mxPoint x="1310" y="1690" />
              <mxPoint x="990" y="1690" />
            </Array>
          </mxGeometry>
        </mxCell>
        <mxCell id="seNCL75p8Slw6cayTFeB-600" value="1...3" style="text;html=1;strokeColor=none;fillColor=none;align=center;verticalAlign=middle;whiteSpace=wrap;rounded=0;fontSize=13;" parent="1" vertex="1">
          <mxGeometry x="1420" y="660" width="60" height="30" as="geometry" />
        </mxCell>
        <mxCell id="seNCL75p8Slw6cayTFeB-601" value="1..1" style="text;html=1;strokeColor=none;fillColor=none;align=center;verticalAlign=middle;whiteSpace=wrap;rounded=0;fontSize=13;" parent="1" vertex="1">
          <mxGeometry x="980" y="1660" width="60" height="30" as="geometry" />
        </mxCell>
        <mxCell id="seNCL75p8Slw6cayTFeB-603" value="Relates to" style="text;html=1;strokeColor=none;fillColor=none;align=center;verticalAlign=middle;whiteSpace=wrap;rounded=0;fontSize=13;" parent="1" vertex="1">
          <mxGeometry x="1320" y="780" width="60" height="30" as="geometry" />
        </mxCell>
        <mxCell id="seNCL75p8Slw6cayTFeB-607" value="" style="triangle;whiteSpace=wrap;html=1;fontSize=13;direction=north;fillColor=#000000;" parent="1" vertex="1">
          <mxGeometry x="1625" y="830" width="65" height="40" as="geometry" />
        </mxCell>
        <mxCell id="seNCL75p8Slw6cayTFeB-608" value="Leads" style="text;html=1;strokeColor=none;fillColor=none;align=center;verticalAlign=middle;whiteSpace=wrap;rounded=0;fontSize=13;" parent="1" vertex="1">
          <mxGeometry x="1630" y="880" width="60" height="30" as="geometry" />
        </mxCell>
        <mxCell id="seNCL75p8Slw6cayTFeB-609" value="1..1" style="text;html=1;strokeColor=none;fillColor=none;align=center;verticalAlign=middle;whiteSpace=wrap;rounded=0;fontSize=13;" parent="1" vertex="1">
          <mxGeometry x="1410" y="1510" width="60" height="30" as="geometry" />
        </mxCell>
        <mxCell id="seNCL75p8Slw6cayTFeB-612" value="0..*" style="text;html=1;strokeColor=none;fillColor=none;align=center;verticalAlign=middle;whiteSpace=wrap;rounded=0;fontSize=13;" parent="1" vertex="1">
          <mxGeometry x="1605" y="610" width="60" height="30" as="geometry" />
        </mxCell>
        <mxCell id="seNCL75p8Slw6cayTFeB-614" style="edgeStyle=orthogonalEdgeStyle;rounded=0;orthogonalLoop=1;jettySize=auto;html=1;exitX=0;exitY=0.5;exitDx=0;exitDy=0;entryX=0.5;entryY=1;entryDx=0;entryDy=0;fontSize=13;endArrow=none;endFill=0;" parent="1" source="seNCL75p8Slw6cayTFeB-309" target="seNCL75p8Slw6cayTFeB-459" edge="1">
          <mxGeometry relative="1" as="geometry">
            <Array as="points">
              <mxPoint x="620" y="1675" />
              <mxPoint x="620" y="1000" />
            </Array>
          </mxGeometry>
        </mxCell>
        <mxCell id="seNCL75p8Slw6cayTFeB-615" value="" style="triangle;whiteSpace=wrap;html=1;fontSize=13;direction=north;fillColor=#000000;" parent="1" vertex="1">
          <mxGeometry x="630" y="1090" width="60" height="40" as="geometry" />
        </mxCell>
        <mxCell id="seNCL75p8Slw6cayTFeB-616" value="Belongs to" style="text;html=1;strokeColor=none;fillColor=none;align=center;verticalAlign=middle;whiteSpace=wrap;rounded=0;fontSize=13;" parent="1" vertex="1">
          <mxGeometry x="630" y="1135" width="60" height="30" as="geometry" />
        </mxCell>
        <mxCell id="seNCL75p8Slw6cayTFeB-617" value="1..*" style="text;html=1;strokeColor=none;fillColor=none;align=center;verticalAlign=middle;whiteSpace=wrap;rounded=0;fontSize=13;" parent="1" vertex="1">
          <mxGeometry x="610" y="1000" width="60" height="30" as="geometry" />
        </mxCell>
        <mxCell id="seNCL75p8Slw6cayTFeB-618" value="0..*" style="text;html=1;strokeColor=none;fillColor=none;align=center;verticalAlign=middle;whiteSpace=wrap;rounded=0;fontSize=13;" parent="1" vertex="1">
          <mxGeometry x="730" y="1650" width="60" height="30" as="geometry" />
        </mxCell>
        <mxCell id="seNCL75p8Slw6cayTFeB-624" value="0...*" style="text;html=1;strokeColor=none;fillColor=none;align=center;verticalAlign=middle;whiteSpace=wrap;rounded=0;fontSize=13;" parent="1" vertex="1">
          <mxGeometry x="1320" y="610" width="60" height="30" as="geometry" />
        </mxCell>
        <mxCell id="a4L5xaEb5jmQk4khg5_u-5" value="Personalizes" style="text;html=1;strokeColor=none;fillColor=none;align=center;verticalAlign=middle;whiteSpace=wrap;rounded=0;" parent="1" vertex="1">
          <mxGeometry x="1300" y="430" width="60" height="30" as="geometry" />
        </mxCell>
        <mxCell id="a4L5xaEb5jmQk4khg5_u-6" value="0..*" style="text;html=1;strokeColor=none;fillColor=none;align=center;verticalAlign=middle;whiteSpace=wrap;rounded=0;" parent="1" vertex="1">
          <mxGeometry x="1360" y="330" width="60" height="30" as="geometry" />
        </mxCell>
        <mxCell id="FneM1opVlrGnefaTa8es-60" style="edgeStyle=orthogonalEdgeStyle;rounded=0;orthogonalLoop=1;jettySize=auto;html=1;endArrow=none;endFill=0;" parent="1" source="seNCL75p8Slw6cayTFeB-319" edge="1">
          <mxGeometry relative="1" as="geometry">
            <mxPoint x="1840" y="520" as="targetPoint" />
          </mxGeometry>
        </mxCell>
        <mxCell id="FneM1opVlrGnefaTa8es-62" style="edgeStyle=orthogonalEdgeStyle;rounded=0;orthogonalLoop=1;jettySize=auto;html=1;entryX=0.635;entryY=1.014;entryDx=0;entryDy=0;entryPerimeter=0;endArrow=none;endFill=0;" parent="1" source="seNCL75p8Slw6cayTFeB-394" target="seNCL75p8Slw6cayTFeB-528" edge="1">
          <mxGeometry relative="1" as="geometry" />
        </mxCell>
        <mxCell id="FneM1opVlrGnefaTa8es-75" value="&lt;font style=&quot;font-size: 20px;&quot;&gt;&lt;b&gt;Tourmato&lt;/b&gt;&lt;/font&gt;" style="text;html=1;strokeColor=none;fillColor=none;align=center;verticalAlign=middle;whiteSpace=wrap;rounded=0;" parent="1" vertex="1">
          <mxGeometry x="1350" y="50" width="60" height="30" as="geometry" />
        </mxCell>
        <mxCell id="7QcmikivW9vGpo6I47kG-9" value="" style="triangle;whiteSpace=wrap;html=1;fontSize=13;direction=north;fillColor=#000000;" parent="1" vertex="1">
          <mxGeometry x="1320" y="725" width="60" height="40" as="geometry" />
        </mxCell>
      </root>
    </mxGraphModel>
  </diagram>
</mxfile>
